<svg width="349" height="263" viewBox="0 0 349 263" fill="none" xmlns="http://www.w3.org/2000/svg">
    <path fill-rule="evenodd" clip-rule="evenodd" d="M172.418 257.733C154.057 254.451 138.191 243.255 119.64 241.323C90.4308 238.283 47.6928 268.531 32.667 243.185C16.2989 215.575 75.2261 186.471 68.4976 155.055C61.9012 124.254 4.28444 122.988 0.233613 91.7469C-3.11913 65.8894 30.3622 48.3126 53.0038 35.561C73.2949 24.1331 97.6536 24.2599 120.911 23.7817C138.574 23.4186 155.117 36.7014 172.418 33.1057C195.893 28.2267 211.354 -0.293305 235.324 0.00226142C258.009 0.281981 292.755 11.8041 293.04 34.593C293.461 68.1734 224.678 85.1647 236.784 116.469C251.667 154.956 325.169 135.256 345.781 170.977C359.031 193.939 328.4 223.001 307.953 239.808C288.064 256.155 260.567 258.591 235.089 261.961C214.067 264.742 193.293 261.465 172.418 257.733Z" fill="url(#paint0_linear_1145_4896)"/>
    <mask id="mask0_1145_4896" style="mask-type:alpha" maskUnits="userSpaceOnUse" x="0" y="0" width="349" height="263">
        <path fill-rule="evenodd" clip-rule="evenodd" d="M172.418 257.733C154.057 254.451 138.191 243.255 119.64 241.323C90.4308 238.283 47.6928 268.531 32.667 243.185C16.2989 215.575 75.2261 186.471 68.4976 155.055C61.9012 124.254 4.28444 122.988 0.233613 91.7469C-3.11913 65.8894 30.3622 48.3126 53.0038 35.561C73.2949 24.1331 97.6536 24.2599 120.911 23.7817C138.574 23.4186 155.117 36.7014 172.418 33.1057C195.893 28.2267 211.354 -0.293305 235.324 0.00226142C258.009 0.281981 292.755 11.8041 293.04 34.593C293.461 68.1734 224.678 85.1647 236.784 116.469C251.667 154.956 325.169 135.256 345.781 170.977C359.031 193.939 328.4 223.001 307.953 239.808C288.064 256.155 260.567 258.591 235.089 261.961C214.067 264.742 193.293 261.465 172.418 257.733Z" fill="url(#paint1_linear_1145_4896)"/>
    </mask>
    <g mask="url(#mask0_1145_4896)">
        <g clip-path="url(#clip0_1145_4896)">
            <path d="M203.153 225.373C198.664 203.666 193.051 196.428 193.051 196.428L190.907 194.766L188.329 192.763L188.341 192.506L187.729 192.298L187.586 192.186L187.35 192.006L187.313 192.046L187.233 192.129L175.565 188.163L160.762 183.136L153.908 174.227C152.791 172.777 151.354 171.604 149.709 170.801C148.063 169.999 146.254 169.588 144.424 169.602L122.533 169.764C119.573 169.786 116.728 170.914 114.558 172.927L100.169 186.272L77.7488 196.978L77.711 196.94L77.4756 197.109L74.0114 198.765L74.1544 199.509L72.0103 201.056C72.0103 201.056 66.3979 207.79 61.9079 227.988C60.7657 233.128 60.2035 244.152 60.0006 257.738C59.9904 258.425 60.1169 259.107 60.3728 259.745C60.6288 260.383 61.009 260.964 61.4913 261.453C61.9737 261.943 62.5486 262.332 63.1826 262.597C63.8167 262.863 64.4971 263 65.1845 263H184.936L199.882 263C200.569 263 201.249 262.863 201.883 262.598C202.516 262.332 203.091 261.944 203.573 261.455C204.056 260.966 204.436 260.386 204.692 259.749C204.948 259.111 205.076 258.43 205.066 257.743C204.868 242.96 204.306 230.946 203.153 225.373Z" fill="#3F3D56"/>
            <path d="M136.916 161.379C152.755 161.379 165.595 148.54 165.595 132.703C165.595 116.865 152.755 104.026 136.916 104.026C121.077 104.026 108.236 116.865 108.236 132.703C108.236 148.54 121.077 161.379 136.916 161.379Z" fill="#9E616A"/>
            <path d="M129.579 159.975C129.457 159.705 129.334 159.434 129.213 159.163C129.26 159.164 129.306 159.171 129.353 159.172L129.579 159.975Z" fill="#2F2E41"/>
            <path d="M107.439 105.33C108.889 104.173 110.585 103.109 112.439 103.169C114.294 103.228 116.174 104.903 115.79 106.718C119.197 100.688 124.619 96.0494 131.104 93.6177C137.59 91.1859 144.725 91.1161 151.258 93.4205C155.867 95.0465 160.387 98.2995 161.446 103.071C161.718 104.295 161.776 105.638 162.541 106.633C163.505 107.887 165.35 108.17 166.869 107.729C166.884 107.725 166.9 107.72 166.915 107.716C167.171 107.628 167.448 107.62 167.71 107.691C167.972 107.763 168.206 107.911 168.382 108.117C168.558 108.323 168.669 108.577 168.699 108.847C168.73 109.116 168.678 109.389 168.552 109.629L167.248 112.061C168.892 112.427 170.6 112.391 172.227 111.955C172.497 111.884 172.783 111.898 173.045 111.996C173.306 112.094 173.531 112.27 173.689 112.501C173.846 112.732 173.929 113.006 173.924 113.285C173.92 113.564 173.829 113.836 173.665 114.061C169.364 119.965 162.18 123.777 154.848 123.732C149.637 123.701 144.373 121.905 139.301 123.103C137.339 123.567 135.506 124.463 133.936 125.728C132.366 126.992 131.099 128.592 130.228 130.41C129.357 132.228 128.904 134.217 128.902 136.233C128.9 138.249 129.35 140.239 130.218 142.059C128.66 140.355 125.649 140.758 124.055 142.429C122.461 144.099 122.049 146.593 122.209 148.896C122.455 152.419 123.835 155.738 125.29 158.968C113.09 158.584 101.551 150.027 97.6671 138.453C93.7668 126.831 97.8545 112.975 107.439 105.33Z" fill="#2F2E41"/>
            <path opacity="0.2" d="M88.228 218.819L96.272 262.58L101.099 263L88.228 218.819Z" fill="black"/>
            <path opacity="0.2" d="M176.833 215.519L168.79 262.548L163.963 263L176.833 215.519Z" fill="black"/>
            <path d="M114.3 90.6029C112.757 91.2468 111.148 90.5411 110.473 88.9249C109.788 87.2841 110.428 85.6184 111.995 84.9641C113.562 84.3098 115.143 85.0172 115.839 86.6846C116.525 88.3269 115.892 89.9381 114.3 90.6029ZM111.345 81.7344L110.119 82.2464C109.813 82.3728 109.47 82.3796 109.159 82.2655C108.848 82.1514 108.591 81.9247 108.439 81.6302L108.378 81.5116C107.059 79.1322 106.908 76.2403 107.932 72.9209C108.88 69.9433 109.274 67.8491 108.482 65.9519C107.566 63.7583 105.61 63.0712 103.115 64.0666C102.148 64.4705 101.84 64.4641 101.078 65.2193C100.913 65.3855 100.715 65.5168 100.498 65.6051C100.281 65.6934 100.048 65.7371 99.8129 65.7335C99.586 65.7308 99.362 65.6825 99.1543 65.5914C98.9465 65.5003 98.7592 65.3683 98.6035 65.2033C98.3037 64.8852 98.1357 64.4653 98.1334 64.0282C98.1312 63.5911 98.295 63.1695 98.5916 62.8484C99.8714 61.509 101.415 60.4493 103.125 59.7362C108.484 57.4985 111.182 60.8022 112.417 63.7586C113.625 66.6504 112.945 69.3335 111.854 72.8083C110.939 75.6957 110.992 77.8352 112.031 79.9625C112.106 80.1234 112.148 80.2977 112.154 80.4751C112.16 80.6524 112.13 80.8291 112.066 80.9946C112.002 81.1601 111.905 81.311 111.781 81.4381C111.657 81.5652 111.509 81.666 111.345 81.7344Z" fill="white"/>
        </g>
    </g>
    <path d="M169.567 51C164.908 51 160.44 52.8506 157.145 56.1446C153.851 59.4387 152 63.9064 152 68.5649C152 73.2234 153.851 77.6911 157.145 80.9852C160.44 84.2792 164.908 86.1298 169.567 86.1298H300.482C305.141 86.1298 309.609 84.2792 312.904 80.9852C316.198 77.6911 318.049 73.2234 318.049 68.5649C318.049 63.9064 316.198 59.4387 312.904 56.1446C309.609 52.8506 305.141 51 300.482 51H169.567Z" fill="#E5E5E5"/>
    <path d="M169.567 54.5548C165.851 54.5548 162.287 56.0309 159.659 58.6583C157.031 61.2857 155.555 64.8492 155.555 68.5649C155.555 72.2806 157.031 75.8441 159.659 78.4716C162.287 81.099 165.851 82.575 169.567 82.575H300.482C304.198 82.575 307.762 81.099 310.39 78.4716C313.017 75.8441 314.494 72.2806 314.494 68.5649C314.494 64.8492 313.017 61.2857 310.39 58.6583C307.762 56.0309 304.198 54.5548 300.482 54.5548H169.567Z" fill="white"/>
    <path d="M198.484 76.9422H172.437C172.354 76.9427 172.272 76.9269 172.196 76.8957C172.119 76.8644 172.049 76.8183 171.991 76.76C171.932 76.7017 171.885 76.6323 171.854 76.5559C171.822 76.4795 171.805 76.3976 171.805 76.3149C171.805 76.2321 171.822 76.1502 171.854 76.0738C171.885 75.9974 171.932 75.9281 171.991 75.8698C172.049 75.8115 172.119 75.7653 172.196 75.7341C172.272 75.7028 172.354 75.687 172.437 75.6875H198.484C198.65 75.6887 198.808 75.7553 198.925 75.8728C199.042 75.9903 199.107 76.1492 199.107 76.3149C199.107 76.4805 199.042 76.6394 198.925 76.7569C198.808 76.8745 198.65 76.9411 198.484 76.9422Z" fill="#99BEFF"/>
    <path d="M231.527 77.1513H205.48C205.397 77.1518 205.315 77.136 205.238 77.1047C205.162 77.0735 205.092 77.0273 205.033 76.969C204.974 76.9107 204.928 76.8414 204.896 76.765C204.864 76.6886 204.848 76.6067 204.848 76.5239C204.848 76.4412 204.864 76.3593 204.896 76.2829C204.928 76.2065 204.974 76.1371 205.033 76.0788C205.092 76.0205 205.162 75.9744 205.238 75.9431C205.315 75.9119 205.397 75.8961 205.48 75.8966H231.527C231.61 75.8961 231.692 75.9119 231.768 75.9431C231.845 75.9744 231.914 76.0205 231.973 76.0788C232.032 76.1371 232.079 76.2065 232.11 76.2829C232.142 76.3593 232.158 76.4412 232.158 76.5239C232.158 76.6067 232.142 76.6886 232.11 76.765C232.079 76.8414 232.032 76.9107 231.973 76.969C231.914 77.0273 231.845 77.0735 231.768 77.1047C231.692 77.136 231.61 77.1518 231.527 77.1513Z" fill="#99BEFF"/>
    <path d="M264.569 77.3604H238.522C238.356 77.3592 238.198 77.2926 238.081 77.1751C237.964 77.0576 237.899 76.8987 237.899 76.733C237.899 76.5674 237.964 76.4085 238.081 76.291C238.198 76.1734 238.356 76.1069 238.522 76.1057H264.569C264.652 76.1052 264.734 76.121 264.811 76.1522C264.887 76.1835 264.957 76.2296 265.016 76.2879C265.074 76.3463 265.121 76.4156 265.153 76.492C265.185 76.5684 265.201 76.6503 265.201 76.733C265.201 76.8158 265.185 76.8977 265.153 76.9741C265.121 77.0505 265.074 77.1198 265.016 77.1781C264.957 77.2365 264.887 77.2826 264.811 77.3138C264.734 77.3451 264.652 77.3609 264.569 77.3604Z" fill="#99BEFF"/>
    <path d="M297.612 77.5695H271.565C271.399 77.5683 271.24 77.5017 271.124 77.3842C271.007 77.2667 270.941 77.1078 270.941 76.9421C270.941 76.7765 271.007 76.6176 271.124 76.5001C271.24 76.3825 271.399 76.3159 271.565 76.3148H297.612C297.777 76.3159 297.936 76.3825 298.053 76.5001C298.169 76.6176 298.235 76.7765 298.235 76.9421C298.235 77.1078 298.169 77.2667 298.053 77.3842C297.936 77.5017 297.777 77.5683 297.612 77.5695Z" fill="#99BEFF"/>
    <path d="M185.403 71.1689C188.077 71.1689 190.245 69.0017 190.245 66.3283C190.245 63.655 188.077 61.4878 185.403 61.4878C182.73 61.4878 180.562 63.655 180.562 66.3283C180.562 69.0017 182.73 71.1689 185.403 71.1689Z" fill="#99BEFF"/>
    <path d="M218.646 71.1689C221.319 71.1689 223.487 69.0017 223.487 66.3283C223.487 63.655 221.319 61.4878 218.646 61.4878C215.972 61.4878 213.804 63.655 213.804 66.3283C213.804 69.0017 215.972 71.1689 218.646 71.1689Z" fill="#99BEFF"/>
    <path d="M251.887 71.1689C254.561 71.1689 256.729 69.0017 256.729 66.3283C256.729 63.655 254.561 61.4878 251.887 61.4878C249.214 61.4878 247.046 63.655 247.046 66.3283C247.046 69.0017 249.214 71.1689 251.887 71.1689Z" fill="#99BEFF"/>
    <path d="M285.13 71.1689C287.803 71.1689 289.971 69.0017 289.971 66.3283C289.971 63.655 287.803 61.4878 285.13 61.4878C282.456 61.4878 280.288 63.655 280.288 66.3283C280.288 69.0017 282.456 71.1689 285.13 71.1689Z" fill="#99BEFF"/>
    <defs>
        <linearGradient id="paint0_linear_1145_4896" x1="1.71951e-05" y1="7.68025e-06" x2="463.048" y2="47.5476" gradientUnits="userSpaceOnUse">
            <stop stop-color="${primaryGradientEnd}"/>
            <stop offset="1" stop-color="${primaryGradientStart}"/>
        </linearGradient>
        <linearGradient id="paint1_linear_1145_4896" x1="1.71951e-05" y1="7.68025e-06" x2="463.048" y2="47.5476" gradientUnits="userSpaceOnUse">
            <stop stop-color="${primaryGradientEnd}"/>
            <stop offset="1" stop-color="${primaryGradientStart}"/>
        </linearGradient>
        <clipPath id="clip0_1145_4896">
            <rect width="307" height="204" fill="white" transform="translate(60 59)"/>
        </clipPath>
    </defs>
</svg>