<svg width="375" height="422" viewBox="0 0 375 422" fill="none" xmlns="http://www.w3.org/2000/svg">
    <g clip-path="url(#clip0_1112_188)">
        <path d="M0 118.599C0 118.599 13.8333 76.4389 42.7333 87.378C83.0333 102.606 186.333 346.158 294.733 346.158C350.3 346.158 375 303.599 375 303.599V-27H0V118.599Z" fill="url(#paint0_linear_1112_188)"/>
    </g>
    <g clip-path="url(#clip1_1112_188)">
        <path d="M222.404 133.017C222.404 133.017 230.216 133.074 232.789 146.453C235.38 159.833 237.667 177.64 240.716 184.329C243.764 191.019 249.214 202.992 251.748 215.117C254.283 227.242 255.331 234.9 255.921 237.428C256.512 239.956 258.97 250.56 259.18 253.734C259.37 256.908 258.341 264.414 258.055 265.726C257.751 267.018 255.293 273.765 255.007 274.05C254.702 274.354 253.33 272.643 253.444 271.598C253.559 270.553 254.454 264.985 254.454 264.985L253.177 256.623C253.177 256.623 252.282 263.768 251.158 264.281C250.033 264.794 248.966 264.471 248.7 264.319C248.433 264.167 248.89 257.915 247.613 252.898C246.337 247.88 248.985 243.015 247.499 238.549C246.013 234.083 233.932 209.168 231.703 201.072C229.473 192.957 221.565 171.406 219.184 165.667C216.783 159.947 217.659 132.732 222.404 133.017Z" fill="#FFEDE5"/>
        <path d="M222.366 160.555C221.661 158.103 220.003 158.198 218.097 159.376C218.307 162.151 218.669 164.432 219.184 165.667C219.812 167.149 220.803 169.715 221.966 172.832C222.747 170.285 223.776 165.496 222.366 160.555Z" fill="#DD825C"/>
        <path d="M232.998 191.266C232.922 191.266 232.846 191.228 232.827 191.152C232.789 191.057 232.846 190.943 232.941 190.905L237.915 189.1C238.01 189.062 238.124 189.119 238.162 189.214C238.2 189.309 238.143 189.423 238.048 189.461L233.075 191.266C233.036 191.266 233.017 191.266 232.998 191.266Z" fill="#472938"/>
        <path d="M175.243 133.378C175.243 133.378 166.059 134.937 163.429 146.473C160.399 159.757 158.551 177.659 155.502 184.348C152.453 191.038 147.004 203.011 144.469 215.136C141.935 227.261 140.868 234.901 140.277 237.428C139.687 239.956 137.229 250.56 137.019 253.734C136.828 256.908 137.857 264.415 138.143 265.726C138.429 267.037 140.906 273.765 141.192 274.05C141.497 274.354 142.869 272.643 142.754 271.598C142.64 270.553 141.745 264.985 141.745 264.985L143.021 256.623C143.021 256.623 143.917 263.768 145.041 264.282C146.165 264.795 147.232 264.472 147.499 264.32C147.766 264.167 147.309 257.915 148.585 252.898C149.862 247.881 147.213 243.015 148.7 238.549C150.186 234.083 162.267 209.168 164.515 201.072C166.745 192.958 174.652 171.406 177.034 165.667C179.435 159.947 179.988 133.074 175.243 133.378Z" fill="#FFEDE5"/>
        <path d="M171.947 158.845C172.976 156.507 176.215 158.179 178.12 159.358C177.911 162.132 177.549 164.413 177.034 165.648C176.405 167.131 175.415 169.696 174.252 172.813C172.766 171.35 170.746 161.581 171.947 158.845Z" fill="#DD825C"/>
        <path d="M163.258 191.266C163.219 191.266 163.2 191.266 163.162 191.247L159.065 189.043C158.97 188.986 158.932 188.891 158.989 188.796C159.046 188.701 159.142 188.663 159.237 188.72L163.334 190.924C163.429 190.981 163.467 191.076 163.41 191.171C163.391 191.228 163.315 191.266 163.258 191.266Z" fill="#472938"/>
        <path d="M228.101 421.905H251.462C252.034 421.905 252.491 421.449 252.491 420.879C252.491 420.175 252.453 419.187 252.358 418.218H227.682C227.549 419.206 227.415 420.118 227.282 420.955C227.206 421.449 227.606 421.905 228.101 421.905Z" fill="#3B2645"/>
        <path d="M251.291 414.626C250.033 413.828 246.051 410.445 244.755 401.703C244.755 401.703 244.755 401.703 244.755 401.684C244.755 401.665 244.755 401.627 244.736 401.608C244.641 401.057 243.955 398.415 238.943 398.434C233.36 398.472 232.56 404.725 232.236 404.649C231.912 404.573 231.112 400.81 229.702 400.772C229.111 406.606 228.368 413.258 227.701 418.218H252.377C252.206 416.622 251.92 415.006 251.291 414.626Z" fill="#AB8DA8"/>
        <path d="M232.217 404.649C232.56 404.725 233.341 398.472 238.924 398.434C243.936 398.396 244.622 401.038 244.717 401.608C244.641 401.095 244.564 400.563 244.507 399.993C244.069 395.584 244.202 387.393 244.202 387.393L230.921 387.735C230.921 387.735 230.388 393.626 229.664 400.753C231.112 400.791 231.893 404.573 232.217 404.649Z" fill="#FFEDE5"/>
        <path d="M251.291 414.626C251.291 414.683 251.272 414.721 251.272 414.721C251.272 414.721 246.299 414.721 239.858 414.721C233.417 414.721 232.198 404.649 232.198 404.649C231.855 404.573 231.074 400.81 229.664 400.772C229.073 406.606 228.33 413.258 227.663 418.218H252.339C252.206 416.621 251.92 415.044 251.291 414.626Z" fill="#AB8DA8"/>
        <path d="M239.877 414.721C246.318 414.721 251.291 414.721 251.291 414.721C251.291 414.721 251.291 414.683 251.31 414.626C251.31 414.626 251.31 414.626 251.291 414.607C250.033 413.809 246.051 410.426 244.755 401.684C244.755 401.684 244.755 401.684 244.755 401.665C244.755 401.646 244.755 401.608 244.736 401.589C244.641 401.038 243.955 398.396 238.943 398.415C233.36 398.453 232.56 404.706 232.236 404.63C232.217 404.649 233.437 414.721 239.877 414.721Z" fill="#543753"/>
        <path d="M171.394 421.905H148.033C147.461 421.905 147.004 421.449 147.004 420.879C147.004 420.175 147.042 419.187 147.137 418.218H171.813C171.947 419.206 172.08 420.118 172.213 420.955C172.289 421.449 171.908 421.905 171.394 421.905Z" fill="#3B2645"/>
        <path d="M148.204 414.626C149.462 413.828 153.444 410.445 154.74 401.703C154.74 401.703 154.74 401.703 154.74 401.684C154.74 401.665 154.74 401.627 154.759 401.608C154.854 401.057 155.54 398.415 160.552 398.434C166.135 398.472 166.935 404.725 167.259 404.649C167.583 404.573 168.383 400.81 169.793 400.772C170.384 406.606 171.127 413.258 171.794 418.218H147.137C147.289 416.622 147.594 415.006 148.204 414.626Z" fill="#AB8DA8"/>
        <path d="M167.278 404.649C166.935 404.725 166.154 398.472 160.571 398.434C155.559 398.396 154.873 401.038 154.778 401.608C154.854 401.095 154.931 400.563 154.988 399.993C155.426 395.584 155.293 387.393 155.293 387.393L168.574 387.735C168.574 387.735 169.107 393.626 169.831 400.753C168.383 400.791 167.602 404.573 167.278 404.649Z" fill="#FFEDE5"/>
        <path d="M148.204 414.626C148.204 414.683 148.223 414.721 148.223 414.721C148.223 414.721 153.196 414.721 159.637 414.721C166.078 414.721 167.297 404.649 167.297 404.649C167.64 404.573 168.421 400.81 169.831 400.772C170.422 406.606 171.165 413.258 171.832 418.218H147.137C147.289 416.621 147.575 415.044 148.204 414.626Z" fill="#AB8DA8"/>
        <path d="M159.618 414.721C153.177 414.721 148.204 414.721 148.204 414.721C148.204 414.721 148.204 414.683 148.185 414.626C148.185 414.626 148.185 414.626 148.204 414.607C149.462 413.809 153.444 410.426 154.74 401.684C154.74 401.684 154.74 401.684 154.74 401.665C154.74 401.646 154.74 401.608 154.759 401.589C154.854 401.038 155.54 398.396 160.552 398.415C166.135 398.453 166.935 404.706 167.259 404.63C167.278 404.649 166.059 414.721 159.618 414.721Z" fill="#543753"/>
        <path d="M240.506 322.359C238.867 314.928 239.02 293.795 237.381 264.642C236.257 244.726 230.826 229.389 227.492 221.673C196.947 231.708 177.187 225.569 170.174 222.49C156.893 252.023 160.018 286.441 160.437 298.984C160.876 312.363 157.751 325.153 154.549 343.017C151.348 360.862 154.549 388.077 154.549 388.077C160.742 390.3 168.783 387.773 168.783 387.773C168.479 373.937 172.213 360.843 175.643 344.632C179.073 328.403 176.977 317.722 181.455 305.673C185.933 293.624 197.023 253.316 197.023 253.316H201.787C203.578 270.572 211.733 289.614 217.907 306.661C224.081 323.708 221.28 333.534 225.948 353.964C230.617 374.394 230.121 387.754 230.121 387.754C235.647 390.129 244.87 387.374 244.87 387.374C244.87 387.374 245.117 372.474 245.27 355.807C245.422 339.159 242.145 329.79 240.506 322.359Z" fill="#AB8DA8"/>
        <path d="M227.473 221.692C225.929 218.119 224.843 216.162 224.843 216.162L173.052 216.656C172.004 218.575 171.051 220.533 170.156 222.509C177.187 225.588 196.928 231.727 227.473 221.692Z" fill="#3B2645"/>
        <path d="M207.808 116.902L208.608 128.399C208.742 130.205 210.133 131.649 211.924 131.839L222.423 133.017C222.423 133.017 226.253 160.631 219.793 172.034C213.334 183.436 216.783 197.272 224.843 216.162C224.843 216.162 191.745 223.593 173.052 216.656C173.052 216.656 181.303 197.728 179.206 184.045C177.11 170.361 171.642 168.366 171.947 158.864C172.251 149.361 175.224 133.378 175.224 133.378L185.971 131.345C187.057 131.136 187.876 130.281 188.029 129.197L189.553 118.593L207.808 116.902Z" fill="#FFEDE5"/>
        <path d="M189.572 118.593C189.572 118.593 194.85 133.017 208.322 124.389L207.808 116.902L189.572 118.593Z" fill="#DD825C"/>
        <path d="M219.774 172.034C220.86 170.114 221.642 167.758 222.213 165.135C222.442 163.805 222.747 160.517 221.489 155.139C219.812 148.031 220.251 132.77 220.251 132.77L213.658 132.029C213.658 132.029 212.667 154.683 197.861 154.683C183.056 154.683 183.418 131.82 183.418 131.82L177.72 132.903C177.72 132.903 178.73 156.203 171.966 158.845C171.661 168.366 177.129 170.342 179.226 184.026C179.359 184.919 179.454 185.831 179.511 186.762C179.511 186.762 193.174 192.654 216.44 186.325C216.287 181.118 217.297 176.405 219.774 172.034Z" fill="#AB8DA8"/>
        <path d="M179.492 186.781C179.492 186.781 193.155 192.672 216.421 186.344C216.382 185.052 216.421 183.778 216.535 182.543C200.014 187.009 184.504 184.443 179.073 183.265C179.111 183.512 179.149 183.778 179.206 184.044C179.34 184.937 179.435 185.85 179.492 186.781Z" fill="#3B2645"/>
        <path d="M189.687 177.431C186.447 177.431 184.447 176.557 184.351 176.519C184.256 176.481 184.218 176.367 184.256 176.272C184.294 176.177 184.408 176.139 184.504 176.177C184.523 176.196 187.095 177.298 191.021 177.013C192.469 176.899 193.574 176.671 194.66 176.443C196.546 176.044 198.319 175.664 201.253 176.177C204.931 176.823 209.504 177.45 212.305 176.5C212.4 176.462 212.514 176.519 212.533 176.614C212.572 176.709 212.514 176.823 212.419 176.842C209.561 177.811 204.912 177.184 201.196 176.519C198.338 176.025 196.68 176.367 194.755 176.785C193.65 177.013 192.526 177.26 191.059 177.374C190.582 177.412 190.125 177.431 189.687 177.431Z" fill="#472938"/>
        <path d="M198.147 217.435C198.537 217.435 198.852 216.916 198.852 216.276C198.852 215.636 198.537 215.117 198.147 215.117C197.758 215.117 197.442 215.636 197.442 216.276C197.442 216.916 197.758 217.435 198.147 217.435Z" fill="#DD825C"/>
        <path d="M216.093 108.016C217.053 105.36 216.676 102.791 215.251 102.278C213.825 101.765 211.891 103.503 210.931 106.159C209.97 108.815 210.347 111.384 211.773 111.896C213.198 112.409 215.132 110.672 216.093 108.016Z" fill="#FFEDE5"/>
        <path d="M184.818 111.903C186.244 111.39 186.621 108.821 185.66 106.165C184.7 103.509 182.766 101.772 181.34 102.285C179.914 102.798 179.537 105.366 180.498 108.022C181.458 110.678 183.393 112.416 184.818 111.903Z" fill="#FFEDE5"/>
        <path d="M183.951 108.881C183.894 108.881 183.837 108.862 183.799 108.805L181.931 106.164C181.874 106.088 181.893 105.955 181.969 105.898C182.046 105.841 182.16 105.86 182.236 105.936L184.103 108.577C184.161 108.653 184.142 108.786 184.065 108.843C184.027 108.881 183.989 108.881 183.951 108.881Z" fill="#472938"/>
        <path d="M212.819 108.52C212.781 108.52 212.724 108.501 212.705 108.482C212.629 108.406 212.629 108.292 212.686 108.216L214.667 105.955C214.744 105.879 214.858 105.879 214.934 105.936C215.01 106.012 215.01 106.126 214.953 106.202L212.972 108.463C212.914 108.501 212.857 108.52 212.819 108.52Z" fill="#472938"/>
        <path d="M212.819 101.204C212.819 114.203 206.893 125.301 198.357 125.301C189.82 125.301 182.903 113.309 182.903 100.31C182.903 87.3113 189.801 78.2271 198.357 78.2271C206.912 78.2271 212.819 88.2045 212.819 101.204Z" fill="#FFEDE5"/>
        <path d="M199.066 84.3349C205.786 83.6409 210.789 78.7872 210.239 73.494C209.69 68.2008 203.796 64.4724 197.076 65.1665C190.355 65.8605 185.353 70.7142 185.903 76.0074C186.452 81.3006 192.346 85.029 199.066 84.3349Z" fill="#3B2645"/>
        <g opacity="0.5">
            <g opacity="0.5">
                <path opacity="0.5" d="M199.062 84.3275C205.521 83.6623 210.38 79.1583 210.266 74.1221C208.303 70.4162 203.406 68.0786 197.976 68.6488C191.516 69.3139 186.657 73.818 186.771 78.8542C188.753 82.5601 193.631 84.8976 199.062 84.3275Z" fill="#3B2645"/>
            </g>
        </g>
        <path d="M212.762 103.161C212.762 103.161 206.988 96.5854 207.732 89.0787C207.732 89.0787 202.701 98.1058 182.903 102.686L181.188 102.344C181.188 102.344 174.9 73.1529 198.357 73.0768C212.476 73.0198 213.505 82.009 213.505 82.009C213.505 82.009 221.299 84.3275 215.239 102.287L212.762 103.161Z" fill="#3B2645"/>
        <path d="M197.918 112.739C196.946 112.739 195.708 111.96 195.536 111.637C195.346 111.257 195.879 109.109 196.775 106.753C197.728 104.244 197.194 102.781 197.194 102.762C197.156 102.667 197.213 102.553 197.308 102.515C197.404 102.477 197.518 102.534 197.556 102.629C197.575 102.686 198.147 104.206 197.137 106.867C196.089 109.642 195.822 111.257 195.879 111.447C195.975 111.637 197.175 112.416 198.032 112.34C198.909 112.264 200.224 111.523 200.224 111.504C200.319 111.447 200.433 111.485 200.471 111.58C200.529 111.675 200.491 111.789 200.395 111.827C200.338 111.865 199.004 112.625 198.052 112.701C198.013 112.739 197.956 112.739 197.918 112.739Z" fill="#472938"/>
        <path d="M198.147 117.091C195.536 117.091 193.764 115.324 193.688 115.248C193.612 115.172 193.612 115.058 193.688 114.982C193.764 114.906 193.879 114.906 193.955 114.982C193.974 115.001 195.708 116.711 198.147 116.711C200.586 116.711 202.32 115.001 202.339 114.982C202.415 114.906 202.529 114.906 202.606 114.982C202.682 115.058 202.682 115.172 202.606 115.248C202.529 115.324 200.757 117.091 198.147 117.091Z" fill="#472938"/>
        <path d="M205.197 105.252C204.549 105.233 204.054 104.681 204.073 104.035L204.111 103.199C204.13 102.553 204.683 102.059 205.331 102.078C205.979 102.097 206.474 102.648 206.455 103.294L206.417 104.13C206.398 104.777 205.845 105.29 205.197 105.252Z" fill="#472938"/>
        <path d="M191.63 105.252C190.982 105.29 190.43 104.777 190.411 104.13L190.373 103.294C190.334 102.648 190.849 102.097 191.497 102.078C192.145 102.04 192.697 102.553 192.716 103.199L192.754 104.035C192.773 104.682 192.278 105.233 191.63 105.252Z" fill="#472938"/>
        <path d="M208.818 99.1511C208.818 99.1511 207.35 97.8398 205.121 98.2389C202.892 98.6379 202.396 98.752 202.244 98.5809C202.091 98.4289 201.901 97.1746 204.473 96.7755C207.046 96.3764 208.684 98.1438 208.818 99.1511Z" fill="#472938"/>
        <path d="M261.886 253.734C261.695 250.56 259.218 239.956 258.627 237.428C258.037 234.9 256.988 227.242 254.454 215.117C251.92 202.992 246.47 191.019 243.421 184.329C240.373 177.64 238.086 159.832 235.495 146.453C232.903 133.074 225.11 133.017 225.11 133.017L222.023 132.675L216.344 132.048L214.591 131.858C212.8 131.649 211.409 130.204 211.276 128.418L211.009 124.427L210.666 119.429C212.114 117.3 213.277 114.678 214.115 111.751C214.229 111.827 214.344 111.884 214.458 111.922C215.887 112.435 217.812 110.706 218.783 108.045C219.736 105.385 219.355 102.819 217.945 102.306C224.004 84.3655 216.211 82.028 216.211 82.028C216.211 82.028 215.849 78.9302 212.705 76.4026C212.915 75.6805 213.01 74.9203 212.991 74.1601C212.991 73.951 212.972 73.742 212.953 73.5329C212.4 68.2497 206.512 64.5248 199.786 65.209C193.059 65.9121 188.067 70.7583 188.62 76.0415C188.658 76.4786 188.753 76.9158 188.867 77.3339C180.235 85.4298 183.894 102.363 183.894 102.363C182.598 102.99 182.274 105.48 183.208 108.026C184.161 110.649 186.066 112.378 187.476 111.922C188.581 115.21 190.144 118.118 192.03 120.379L190.754 129.216C190.601 130.299 189.763 131.155 188.696 131.364L186.123 131.858L183.551 132.333L177.949 133.397C177.949 133.397 168.764 134.956 166.135 146.491C163.105 159.775 161.257 177.678 158.208 184.367C155.159 191.057 149.71 203.03 147.175 215.155C144.622 227.242 143.574 234.9 142.983 237.428C142.392 239.956 139.934 250.56 139.725 253.734C139.534 256.908 140.563 264.414 140.849 265.726C141.154 267.018 143.612 273.765 143.898 274.05C144.203 274.354 145.575 272.643 145.46 271.598C145.346 270.553 144.45 264.985 144.45 264.985L145.727 256.623C145.727 256.623 146.623 263.768 147.747 264.281C148.871 264.794 149.938 264.471 150.205 264.319C150.472 264.167 150.014 257.915 151.291 252.898C152.568 247.88 149.919 243.015 151.405 238.549C152.892 234.083 164.972 209.168 167.221 201.072C168.879 195.067 173.642 181.688 176.977 172.832C177.053 172.642 177.11 172.47 177.187 172.28C177.187 172.261 177.206 172.242 177.206 172.242C177.282 172.071 177.339 171.881 177.396 171.71V171.691C177.453 171.52 177.53 171.349 177.587 171.178C177.587 171.159 177.606 171.14 177.606 171.14C177.663 170.988 177.72 170.855 177.758 170.722C179.206 173.801 180.807 177.45 181.779 183.284C181.817 183.531 181.855 183.797 181.912 184.063C181.95 184.291 181.969 184.5 182.008 184.728C182.008 184.766 182.008 184.785 182.027 184.823C182.046 185.013 182.065 185.223 182.103 185.413C182.103 185.432 182.103 185.432 182.103 185.451C182.141 185.907 182.179 186.344 182.217 186.8C182.979 200.141 175.777 216.675 175.777 216.675C174.729 218.594 173.776 220.552 172.88 222.528C159.599 252.061 162.724 286.479 163.143 299.022C163.581 312.401 160.456 325.191 157.255 343.055C154.054 360.9 157.255 388.115 157.255 388.115C157.503 388.21 157.751 388.286 158.017 388.362C158.037 390.642 158.056 396.515 157.713 400.012C157.655 400.563 157.579 401.095 157.503 401.627C157.503 401.665 157.484 401.703 157.484 401.703V401.722C156.169 410.445 152.206 413.847 150.948 414.645C150.434 414.968 150.148 416.089 149.976 417.344V417.363C149.957 417.458 149.957 417.553 149.938 417.629C149.938 417.648 149.938 417.686 149.938 417.705C149.938 417.781 149.919 417.838 149.919 417.914C149.9 418.009 149.9 418.104 149.881 418.218C149.786 419.206 149.767 420.175 149.748 420.879C149.748 421.449 150.205 421.905 150.777 421.905H174.138C174.652 421.905 175.033 421.449 174.957 420.936C174.824 420.099 174.69 419.187 174.557 418.199C173.871 413.239 173.147 406.587 172.556 400.753C171.889 394.196 171.375 388.685 171.299 387.849C171.432 387.811 171.508 387.792 171.508 387.792C171.203 373.956 174.938 360.862 178.368 344.651C181.798 328.422 179.702 317.741 184.18 305.692C188.658 293.643 199.748 253.335 199.748 253.335H204.511C206.303 270.591 214.458 289.633 220.632 306.68C226.806 323.728 224.005 333.553 228.673 353.983C233.341 374.413 232.846 387.773 232.846 387.773C233.113 387.887 233.379 387.982 233.665 388.077C233.551 389.407 233.056 394.614 232.427 400.772C231.836 406.606 231.093 413.258 230.426 418.218C230.293 419.206 230.159 420.118 230.026 420.955C229.95 421.468 230.331 421.924 230.845 421.924H254.206C254.778 421.924 255.235 421.468 255.235 420.898C255.235 420.194 255.197 419.206 255.102 418.237C255.102 418.142 255.083 418.047 255.064 417.933C255.064 417.857 255.045 417.8 255.045 417.724C255.045 417.705 255.045 417.667 255.045 417.648C255.026 417.553 255.026 417.458 255.007 417.382V417.363C254.835 416.089 254.549 414.968 254.035 414.664C252.777 413.866 248.795 410.483 247.499 401.741V401.722C247.499 401.703 247.499 401.684 247.48 401.646C247.404 401.133 247.328 400.601 247.271 400.031C246.851 395.983 246.947 388.761 246.966 387.602C247.385 387.488 247.613 387.431 247.613 387.431C247.613 387.431 247.861 372.531 248.014 355.864C248.166 339.197 244.889 329.828 243.25 322.397C241.611 314.966 241.764 293.833 240.125 264.68C238.944 244.726 233.513 229.408 230.178 221.692C228.635 218.119 227.549 216.162 227.549 216.162C222.575 204.493 219.355 194.763 219.126 186.344C219.126 186.021 219.107 185.698 219.107 185.375C219.107 184.405 219.146 183.474 219.241 182.543V182.524C219.298 181.916 219.374 181.308 219.469 180.718C219.469 180.699 219.469 180.68 219.469 180.68C219.508 180.376 219.565 180.091 219.622 179.806C219.622 179.787 219.622 179.787 219.622 179.768C219.679 179.483 219.736 179.217 219.793 178.932C219.793 178.913 219.793 178.894 219.812 178.875C219.87 178.59 219.946 178.324 220.022 178.039C220.022 178.001 220.041 177.982 220.041 177.944C220.117 177.678 220.174 177.431 220.27 177.184C220.27 177.165 220.289 177.146 220.289 177.108C220.365 176.842 220.46 176.575 220.556 176.309C220.575 176.271 220.594 176.214 220.594 176.176C220.67 175.929 220.765 175.701 220.86 175.454C220.86 175.435 220.88 175.416 220.88 175.378C220.975 175.131 221.089 174.865 221.184 174.618C221.203 174.561 221.222 174.504 221.261 174.447C221.356 174.219 221.47 173.972 221.585 173.744C221.585 173.725 221.604 173.706 221.604 173.687C221.718 173.44 221.851 173.193 221.966 172.946C222.004 172.889 222.023 172.832 222.061 172.775C222.194 172.528 222.328 172.28 222.461 172.033C222.575 171.824 222.709 171.596 222.823 171.368C222.861 171.311 222.88 171.235 222.918 171.178C223.014 171.007 223.09 170.817 223.166 170.646C223.185 170.589 223.223 170.532 223.242 170.456C223.338 170.247 223.414 170.038 223.509 169.829C223.547 169.905 223.566 169.981 223.604 170.057C223.604 170.076 223.623 170.095 223.623 170.114C223.681 170.266 223.738 170.418 223.795 170.57C223.795 170.589 223.814 170.608 223.814 170.627C223.871 170.779 223.928 170.95 224.005 171.102C224.005 171.121 224.024 171.14 224.024 171.14C224.081 171.311 224.157 171.482 224.214 171.653V171.672C224.271 171.843 224.347 172.014 224.405 172.204C224.405 172.223 224.424 172.242 224.424 172.242C224.5 172.432 224.557 172.604 224.633 172.794C227.968 181.669 232.732 195.048 234.389 201.034C236.619 209.149 248.7 234.045 250.205 238.511C251.71 242.977 249.043 247.842 250.319 252.86C251.596 257.877 251.139 264.129 251.405 264.281C251.672 264.433 252.739 264.756 253.863 264.243C254.988 263.73 255.883 256.585 255.883 256.585L257.16 264.947C257.16 264.947 256.264 270.515 256.15 271.56C256.036 272.605 257.427 274.316 257.713 274.012C258.017 273.708 260.476 266.98 260.761 265.688C261.047 264.433 262.095 256.908 261.886 253.734Z" stroke="white" stroke-miterlimit="10"/>
    </g>
    <defs>
        <linearGradient id="paint0_linear_1112_188" x1="375" y1="346.158" x2="-124.768" y2="307.295" gradientUnits="userSpaceOnUse">
            <stop stop-color="${primaryGradientEnd}"/>
            <stop offset="1" stop-color="${primaryGradientStart}"/>
        </linearGradient>
        <clipPath id="clip0_1112_188">
            <rect width="375" height="422" fill="white"/>
        </clipPath>
        <clipPath id="clip1_1112_188">
            <rect width="125" height="357" fill="white" transform="translate(137 65)"/>
        </clipPath>
    </defs>
</svg>