<svg width="273" height="548" viewBox="0 0 273 548" fill="none" xmlns="http://www.w3.org/2000/svg">
<path d="M133.908 363.007C128.308 369.108 119.91 375.398 133.263 389.352C150.384 407.232 176.867 484.284 176.867 484.284C175.959 487.227 176.892 491.313 174.797 492.514C171.412 494.455 162.764 488.528 162.764 488.528C162.764 488.528 84.123 407.068 77.744 388.751C73.034 375.23 97.114 309.709 111.524 275.383C116.627 263.221 120.519 254.976 121.487 254.335C121.636 254.235 121.785 254.142 121.934 254.052C130.408 248.681 138.38 249.366 145.503 253.487C147.022 254.371 148.506 255.403 149.946 256.574C167.539 270.846 178.842 304.706 177.67 311.745C176.856 316.644 168.273 327.019 158.856 337.235C156.9 339.355 154.909 341.469 152.944 343.525C144.382 352.498 136.31 360.391 133.908 363.007Z" fill="#F99746"/>
<path d="M158.857 337.233C156.901 339.353 154.91 341.467 152.945 343.523L111.525 275.381C116.628 263.219 120.52 254.974 121.488 254.333C121.637 254.233 121.786 254.14 121.935 254.05L145.504 253.485L149.763 253.385L149.947 256.572L158.857 337.233Z" fill="#ED7D2B"/>
<path d="M135.413 100.201C135.413 100.201 144.225 121.735 141.939 134.551C139.653 147.366 109.322 211.213 98.265 222.139C87.208 233.065 13.904 186.586 13.904 186.586L21.117 179.693C21.117 179.693 79.103 194.454 82.171 189.824C85.24 185.194 100.002 94.218 135.413 100.201Z" fill="#FFB27D"/>
<path d="M133.674 268.99C133.674 268.99 148.716 344.2 186.67 397.114C223.348 448.25 242.427 526.615 242.427 526.615C242.427 526.615 244.862 528.515 249.654 526.48C254.446 524.445 257.658 526.915 258.622 524.585C258.622 524.585 251.694 400.882 232.663 373.8C221.909 358.497 216.175 302.323 216.541 287.035C216.907 271.748 210.218 253.01 210.218 253.01L133.674 268.99Z" fill="#F99746"/>
<path d="M258.269 546.809L249.395 546.872C246.419 546.425 244.218 545.58 241.167 545.203C236.533 544.628 234.414 546.541 233.994 546.98C233.937 547.037 233.913 547.069 233.913 547.069L196.216 547.334C195.258 545.987 196.147 542.843 197.022 540.528C197.612 538.955 198.913 537.757 200.529 537.278C204.518 536.092 212.392 535.006 219.563 528.422C223.598 524.725 239.076 514.793 239.076 514.793L239.158 514.773C239.5 514.777 241.129 515.265 248.242 521.186C251.92 524.241 258.097 516.766 258.097 516.766C258.097 516.766 259.274 517.725 260.16 519.522C260.872 520.94 261.398 522.891 261.01 525.303C260.471 528.703 262.33 535.003 263.808 539.262C264.706 541.843 265.458 543.672 265.458 543.672C265.458 543.672 265.897 545.801 258.269 546.809Z" fill="#233862"/>
<path d="M260.159 519.521C258.051 521.028 253.599 524 250.636 524.408C246.636 524.961 239.076 514.792 239.076 514.792L239.158 514.772C239.5 514.776 241.129 515.264 248.242 521.185C251.92 524.24 258.097 516.765 258.097 516.765C258.097 516.765 259.273 517.725 260.159 519.521Z" fill="#233862"/>
<path d="M258.269 546.809L249.395 546.872C246.419 546.425 244.218 545.58 241.167 545.203C236.533 544.628 234.414 546.541 233.994 546.98C233.937 547.037 233.913 547.069 233.913 547.069L196.216 547.334C195.258 545.987 196.147 542.843 197.022 540.528C198.16 539.502 198.521 544.939 199.159 545.801C199.798 546.662 229.913 545.901 231.643 544.624C233.373 543.347 238.576 541.096 245.862 542.784C252.204 544.252 261.506 540.309 263.807 539.262C264.705 541.843 265.457 543.672 265.457 543.672C265.457 543.672 265.897 545.801 258.269 546.809Z" fill="#233862"/>
<path d="M212.518 205.713C212.549 163.545 204.831 102.688 194.282 98.0129C185.324 94.0419 165.776 88.365 145.628 88.67C129.725 88.911 95.83 96.346 92.383 122.623C90.2 139.257 89.319 152.961 89.319 152.961C89.319 152.961 92.964 163.576 103.014 166.425C104.264 171.121 104.839 175.781 106.335 179.722C123.027 223.684 114.827 267.672 114.827 267.672C130.193 280.451 206.657 272.967 214.362 267.943C226.911 259.758 212.486 247.882 212.518 205.713Z" fill="#2A4E96"/>
<path d="M194.191 494.836L187.825 501.018C185.366 502.753 183.192 503.665 180.727 505.503C176.982 508.293 176.775 511.139 176.775 511.748C176.773 511.828 176.777 511.868 176.777 511.868L149.732 538.13C148.108 537.82 146.576 534.935 145.608 532.657C144.946 531.113 145.057 529.347 145.893 527.884C147.955 524.269 152.891 518.039 153.516 508.324C153.873 502.863 158.184 484.985 158.184 484.985L158.23 484.914C158.479 484.681 159.994 483.907 169.226 483.265C173.995 482.928 173.287 473.255 173.287 473.255C173.287 473.255 174.801 473.135 176.683 473.819C178.178 474.351 179.908 475.396 181.296 477.407C183.258 480.236 188.958 483.501 192.972 485.554C195.405 486.797 197.214 487.598 197.214 487.598C197.214 487.598 199.003 488.832 194.191 494.836Z" fill="#233862"/>
<path d="M176.684 473.819C176.204 476.366 175.045 481.591 173.185 483.935C170.678 487.101 158.185 484.985 158.185 484.985L158.231 484.914C158.48 484.681 159.995 483.907 169.227 483.265C173.996 482.928 173.288 473.255 173.288 473.255C173.288 473.255 174.802 473.135 176.684 473.819Z" fill="#233862"/>
<path d="M194.191 494.836L187.825 501.018C185.366 502.753 183.192 503.665 180.727 505.503C176.982 508.293 176.775 511.139 176.775 511.748C176.773 511.828 176.777 511.868 176.777 511.868L149.732 538.13C148.108 537.82 146.576 534.935 145.608 532.657C145.72 531.129 149.741 534.806 150.798 534.988C151.856 535.169 173.081 513.791 173.447 511.672C173.813 509.553 176.015 504.329 182.446 500.51C188.041 497.184 192.033 487.903 192.971 485.555C195.404 486.798 197.213 487.599 197.213 487.599C197.213 487.599 199.003 488.832 194.191 494.836Z" fill="#233862"/>
<path d="M172.362 103.576C172.362 103.576 195.629 103.322 206.699 110.172C217.769 117.021 265.938 168.751 272.019 183.057C278.1 197.364 222.2 238.156 222.2 238.156L214.319 225.608C214.319 225.608 239.221 190.665 236.048 186.105C232.875 181.546 153.747 134.287 172.362 103.576Z" fill="#FFB27D"/>
<path d="M217.254 223.684L226.539 230.834C226.539 230.834 218.373 248.464 213.914 250.121L213.453 250.213C208.662 251.17 196.761 243.393 194.773 235.359C194.607 234.53 194.645 233.756 194.884 233.038C196.722 228.179 207.877 225.418 213.708 224.289C215.835 223.878 217.254 223.684 217.254 223.684Z" fill="#FFB27D"/>
<path d="M27.517 181.253L22.867 192.011C22.867 192.011 3.77094 188.428 1.06894 184.513L0.865999 184.089C-1.239 179.68 3.37498 166.233 10.674 162.331C11.437 161.967 12.196 161.812 12.951 161.869C18.114 162.456 23.531 172.59 26.057 177.965C26.979 179.926 27.517 181.253 27.517 181.253Z" fill="#FFB27D"/>
<path d="M163.56 89.8359C163.56 89.8359 185.135 90.8069 200.624 100.421C207.758 104.85 235.16 130.815 235.16 130.815C235.16 130.815 232.121 157.942 199.485 165.296C166.265 172.782 160.927 117.261 160.927 117.261L163.56 89.8359Z" fill="#2A4E96"/>
<path d="M157.646 90.229C158.685 91.75 158.714 93.742 157.732 95.299C154.838 99.893 146.727 107.834 125.601 106.381C118.364 105.883 116.703 100.408 121.284 94.781C122.4 93.411 122.021 85.529 121.902 82.368C121.483 75.062 121.755 70.957 121.755 70.957L136.724 60.71L150.925 50.896C148.587 73.85 154.653 85.846 157.646 90.229Z" fill="#FFB27D"/>
<path d="M150.406 62.425C150.406 62.425 139.959 78.795 121.902 82.368C121.483 75.062 121.755 70.957 121.755 70.957L136.724 60.71L150.406 62.425Z" fill="#ED985F"/>
<path d="M115.3 70.0359C115.3 70.0359 150.096 78.1218 154.832 56.7158C159.567 35.3088 167.248 21.9349 145.232 15.8669C123.215 9.79888 117.078 17.0299 113.731 23.7929C110.386 30.5569 106.371 67.3809 115.3 70.0359Z" fill="#FFB27D"/>
<path d="M170.443 14.9379C170.787 14.5929 171.543 14.3459 173.188 14.3659C173.188 14.3659 171.933 13.4599 170.183 13.3009C169.992 10.9989 169.046 6.88392 165.188 5.64292C165.188 5.64292 167.222 6.90693 167.336 9.34793C163.102 4.38093 153.591 0.338928 126.49 0.678928C90.774 1.12793 100.976 24.6529 105.396 27.6699C109.816 30.6869 121.887 24.0199 130.412 25.2679C138.937 26.5169 139.746 39.0089 142.541 40.8999C145.335 42.7919 144.392 39.7109 148.443 38.1939C152.494 36.6759 152.436 43.2199 151.019 47.3819C149.602 51.5449 154.636 57.493 154.636 57.493C154.636 57.493 154.636 57.4929 160.488 51.9729C166.34 46.4529 173.139 21.8789 171.008 16.4039C170.821 15.9189 170.636 15.4299 170.443 14.9379Z" fill="#2C3A64"/>
<path d="M112.309 56.502C112.309 56.502 113.254 59.6751 116.781 60.0861C120.308 60.4971 122.614 57.9841 122.614 57.9841C122.614 57.9841 116.832 55.291 112.309 56.502Z" fill="white"/>
</svg>
