<svg width="732" height="942" viewBox="0 0 732 942" fill="none" xmlns="http://www.w3.org/2000/svg">
<path d="M395.799 367.045C395.799 367.045 379.409 363.59 373.711 364.436C368.012 365.284 390.077 379.861 395.799 367.045Z" fill="#EB4747"/>
<path d="M395.799 367.045C395.799 367.045 404.056 360.526 406.88 355.964C409.704 351.402 426.289 301.512 429.331 294.341C432.372 287.172 436.831 263.118 440.919 254.429C445.154 245.422 475.969 180.413 478.143 159.555L505.943 154.867C505.943 154.867 489.748 257.382 487.36 267.812C484.968 278.24 474.449 301.866 472.495 311.425C470.539 320.983 459.458 355.529 454.679 362.7C449.899 369.869 423.392 436.134 423.392 436.134C423.392 436.134 378.852 390.292 395.799 367.045Z" fill="#EEA886"/>
<path d="M661.774 20.8081H647.207C647.523 21.4041 647.837 21.9511 648.146 22.4591C616.115 30.3131 591.962 65.3011 591.962 107.283C591.962 149.203 616.04 184.152 647.999 192.073C647.478 193.035 647.206 193.76 647.206 193.76H661.773C700.327 193.76 731.582 155.042 731.582 107.283C731.583 59.5251 700.328 20.8081 661.774 20.8081Z" fill="#325C80"/>
<path d="M717.016 107.283C717.016 155.042 685.761 193.76 647.207 193.76C608.652 193.76 577.395 155.042 577.395 107.283C577.395 59.5251 608.652 20.8081 647.207 20.8081C685.761 20.8081 717.016 59.5251 717.016 107.283Z" fill="#3F74A0"/>
<path d="M640.295 0.662109H622.335C622.726 1.39611 623.111 2.07213 623.492 2.70013C584 12.3811 554.222 55.5232 554.222 107.284C554.222 158.97 583.909 202.059 623.314 211.827C622.668 213.014 622.335 213.906 622.335 213.906H640.295C687.833 213.906 726.37 166.171 726.37 107.284C726.37 48.3972 687.833 0.662109 640.295 0.662109Z" fill="#325C80"/>
<path d="M622.335 213.905C669.872 213.905 708.408 166.169 708.408 107.283C708.408 48.3974 669.872 0.661133 622.335 0.661133C574.798 0.661133 536.262 48.3974 536.262 107.283C536.262 166.169 574.798 213.905 622.335 213.905Z" fill="#3F74A0"/>
<path d="M407.098 614.293C407.098 614.293 417.526 618.202 428.171 621.68C438.817 625.157 463.152 645.363 472.276 650.792C481.401 656.226 526.375 672.519 531.59 687.944C536.803 703.37 530.502 724.011 531.59 731.397C532.676 738.786 533.979 767.463 530.502 784.41C527.027 801.357 507.472 893.914 507.472 893.914C507.472 893.914 495.742 896.737 472.493 892.607C472.493 892.607 479.445 838.509 475.1 815.479C470.755 792.45 475.753 756.166 478.36 742.696C480.967 729.226 483.278 720.101 470.389 719.666C457.501 719.231 408.835 714.887 380.372 697.069C351.91 679.255 351.259 680.123 339.093 680.123C326.924 680.123 293.466 580.833 293.466 580.833C293.466 580.833 375.81 587.352 407.098 614.293Z" fill="#EEA886"/>
<path d="M339.094 680.123C339.094 680.123 325.622 682.297 323.016 686.642C320.41 690.987 273.479 748.562 257.401 756.601C241.325 764.641 226.114 786.81 213.659 792.025C201.592 797.075 148.334 804.617 125.739 803.749C103.142 802.879 60.995 809.18 60.995 809.18C60.995 809.18 21.016 812.222 42.743 785.933C42.743 785.933 107.272 762.036 123.133 755.081C138.991 748.13 167.889 741.393 181.359 742.044C194.829 742.697 210.907 709.239 215.034 700.548C219.163 691.858 246.973 639.063 255.881 628.632C264.788 618.203 264.13 599.893 294.139 575.072C323.161 551.067 354.52 644.709 339.094 680.123Z" fill="#EEA886"/>
<path d="M478.499 653.908C478.499 653.908 456.852 644.202 440.337 678.82C432.004 696.293 438.705 716.234 438.705 716.234C419.654 713.068 396.694 707.282 380.373 697.069C351.911 679.255 351.26 680.123 339.094 680.123C326.925 680.123 293.467 580.833 293.467 580.833C293.467 580.833 375.811 587.352 407.098 614.293C407.098 614.293 417.526 618.202 428.171 621.68C437.444 624.704 467.549 646.321 478.499 653.908Z" fill="#EB4747"/>
<path d="M339.094 680.123C339.094 680.123 325.622 682.297 323.016 686.642C321.494 689.171 304.984 709.706 288.27 728.036C288.262 728.046 288.252 728.046 288.252 728.046C288.252 728.046 254.038 732.825 218.275 694.091C218.275 694.091 218.275 694.091 218.275 694.081C226.967 677.179 248.293 637.524 255.88 628.632C264.787 618.203 264.127 599.893 294.138 575.072C323.164 551.067 354.52 644.709 339.094 680.123Z" fill="#EB4747"/>
<path d="M357.734 270.331C357.734 270.331 400.464 253.063 397.837 308.933C395.208 364.805 384.275 370.72 356.619 362.918C328.963 355.113 327.036 321.324 323.435 304.362C319.833 287.399 343.985 272.77 357.734 270.331Z" fill="#EEA886"/>
<path d="M329.279 332.071C329.279 332.071 329.16 317.147 335.365 315.775C341.571 314.4 344.768 323.028 344.768 323.028L349.766 322.757C349.766 322.757 345.3 307.634 351.217 304.166C357.133 300.699 392.53 303.746 396.973 298.652C401.414 293.56 394.972 263.32 385.316 260.349C375.657 257.381 349.277 251.361 332.526 266.279C332.526 266.279 317.953 266.556 317.37 278.424C316.786 290.292 324.229 323.979 329.279 332.071Z" fill="#163342"/>
<path d="M342.391 309.438C340.537 304.514 330.049 305.135 331.121 312.939C332.197 320.746 340.862 332.766 344.341 330.511C347.823 328.256 344.952 316.225 342.391 309.438Z" fill="#EEA886"/>
<path d="M395.799 367.045C395.799 367.045 419.415 406.816 423.106 419.417C426.8 432.02 432.234 477.839 432.083 485.237C431.648 506.528 417.308 537.815 413.939 549.763C410.574 561.712 402.967 594.954 407.097 614.292C407.097 614.292 317.367 602.341 293.466 580.832C293.466 580.832 297.594 544.983 299.114 535.641C300.634 526.298 296.725 496.318 290.207 481.542C283.688 466.769 278.908 430.485 276.303 411.364C273.696 392.247 334.745 364.434 334.745 364.434L395.799 367.045Z" fill="#EB4747"/>
<path d="M340.18 381.385C340.18 381.385 333.951 367.262 332.611 363.351C331.273 359.441 328.182 321.604 323.073 299.33C318.975 281.449 324.755 259.062 319.974 237.118C315.195 215.175 304.548 147.389 303.245 132.397C303.245 132.397 291.511 130.442 275.653 132.397C275.653 132.397 270.438 211.918 271.524 226.472C272.609 241.03 279.998 276.226 278.695 289.913C277.389 303.602 273.045 351.183 273.915 364.434C274.783 377.689 271.034 418.828 279.968 437.039C288.904 455.254 364.947 444.173 340.18 381.385Z" fill="#EEA886"/>
<path d="M378.738 378.559C378.738 378.559 359.29 384.608 331.045 369.87C331.045 369.87 330.585 344.466 326.925 332.074C323.268 319.68 376.793 360.64 376.793 360.64C376.793 360.64 376.889 362.594 377.089 365.28C377.228 367.104 377.411 369.268 377.636 371.39C377.923 374.119 378.296 376.777 378.738 378.559Z" fill="#EEA886"/>
<path d="M478.143 159.555C478.143 159.555 479.337 149.671 477.599 146.521C475.861 143.371 467.28 124.505 465.65 120.991C464.58 118.681 467.28 97.1999 474.883 97.6359C482.487 98.0709 511.603 109.369 511.603 109.369C511.603 109.369 515.659 130.153 513.049 135.369C510.444 140.582 502.778 165.009 502.995 162.837C503.212 160.663 478.143 159.555 478.143 159.555Z" fill="#EEA886"/>
<path d="M466.703 123.278C466.703 123.278 459.821 108.932 461.087 97.0922C461.708 91.2862 459.713 90.2842 462.173 90.1392C464.636 89.9932 470.9 88.7392 474.234 105.891C477.565 123.039 485.53 124.504 485.53 124.504L466.703 123.278Z" fill="#EEA886"/>
<path d="M291.4 91.4993C291.4 91.4993 290.208 79.9643 294.552 81.1233C298.897 82.2803 300.709 90.2143 304.329 91.4793C307.95 92.7433 311.28 104.313 310.267 109.382C309.254 114.451 302.893 131.497 303.348 135.81C303.803 140.123 275.756 135.81 275.756 135.81C275.756 135.81 273.582 126.467 267.934 123.715C262.283 120.963 260.906 114.4 259.464 109.909L296.963 109.068L291.4 91.4993Z" fill="#EEA886"/>
<path d="M601.768 98.8491H195.045V112.66H601.768V98.8491Z" fill="#3F74A0"/>
<path d="M472.655 891.308C472.655 891.308 480.894 892.178 487.556 891.308C494.22 890.437 499.58 882.905 510.296 887.539C521.016 892.175 528.113 905.935 536.513 907.818C544.913 909.7 565.918 918.536 564.034 929.977C562.151 941.421 538.976 946.056 517.392 937.798C495.812 929.544 481.617 927.081 469.594 925.921C457.574 924.765 465.25 907.236 467.857 901.299C470.467 895.36 472.655 891.308 472.655 891.308Z" fill="#E8734D"/>
<path d="M42.7419 785.932C42.7419 785.932 40.897 796.686 44.589 798.098C48.284 799.51 64.36 806.899 65.448 809.832C66.533 812.765 80.656 844.16 85.436 845.571C90.216 846.983 112.81 849.049 111.072 860.127C109.334 871.208 83.806 873.6 65.666 869.904C47.522 866.21 27.97 838.618 23.843 836.229C19.713 833.837 8.74102 823.954 16.889 810.266C25.036 796.577 42.7419 785.932 42.7419 785.932Z" fill="#E8734D"/>
<path d="M477.089 112.835C478.12 114.704 480.015 115.924 482.144 116.095C485.586 116.366 491.408 116.696 498.277 116.537C509.63 116.277 516.356 115.026 514.467 106.19C512.577 97.3549 508.415 98.937 504.361 96.766C500.305 94.592 473.387 93.499 472.231 98.425C471.426 101.836 474.886 108.849 477.089 112.835Z" fill="#EEA886"/>
<path d="M293.809 90.4381C293.809 90.4381 296.482 91.9001 299.667 98.9971C302.855 106.094 304.185 110.308 300.564 112.336C296.944 114.363 276.085 114.22 268.699 113.35C261.312 112.482 260.88 102.214 260.613 99.5562C260.126 94.6652 263.195 91.6231 268.41 90.4661C273.623 89.3061 291.628 89.4041 293.809 90.4381Z" fill="#EEA886"/>
<path d="M113.987 0.662109H96.027C96.418 1.39611 96.803 2.07213 97.187 2.70013C57.693 12.3811 27.915 55.5232 27.915 107.284C27.915 158.97 57.604 202.059 97.009 211.827C96.363 213.014 96.028 213.906 96.028 213.906H113.988C161.526 213.906 200.064 166.171 200.064 107.284C200.063 48.3972 161.525 0.662109 113.987 0.662109Z" fill="#325C80"/>
<path d="M182.103 107.283C182.103 166.17 143.565 213.905 96.028 213.905C48.492 213.905 9.95496 166.17 9.95496 107.283C9.95496 48.3971 48.492 0.661133 96.028 0.661133C143.565 0.662133 182.103 48.3971 182.103 107.283Z" fill="#3F74A0"/>
<path d="M113.987 0.662109H96.027C96.418 1.39611 96.803 2.07213 97.187 2.70013C57.693 12.3811 27.915 55.5232 27.915 107.284C27.915 158.97 57.604 202.059 97.009 211.827C96.363 213.014 96.028 213.906 96.028 213.906H113.988C161.526 213.906 200.064 166.171 200.064 107.284C200.063 48.3972 161.525 0.662109 113.987 0.662109Z" fill="#325C80"/>
<path d="M182.103 107.283C182.103 166.17 143.565 213.905 96.028 213.905C48.492 213.905 9.95496 166.17 9.95496 107.283C9.95496 48.3971 48.492 0.661133 96.028 0.661133C143.565 0.662133 182.103 48.3971 182.103 107.283Z" fill="#3F74A0"/>
<path d="M94.3311 20.8081H79.7629C80.0819 21.4041 80.394 21.9511 80.702 22.4591C48.674 30.3131 24.521 65.3011 24.521 107.283C24.521 149.203 48.599 184.152 80.558 192.073C80.034 193.035 79.762 193.76 79.762 193.76H94.33C132.884 193.76 164.141 155.042 164.141 107.283C164.142 59.5251 132.885 20.8081 94.3311 20.8081Z" fill="#325C80"/>
<path d="M149.574 107.283C149.574 155.042 118.32 193.76 79.7629 193.76C41.2089 193.76 9.95398 155.042 9.95398 107.283C9.95398 59.5251 41.2079 20.8081 79.7629 20.8081C118.32 20.8081 149.574 59.5251 149.574 107.283Z" fill="#3F74A0"/>
<path d="M94.3311 20.8081H79.7629C80.0819 21.4041 80.394 21.9511 80.702 22.4591C48.674 30.3131 24.521 65.3011 24.521 107.283C24.521 149.203 48.599 184.152 80.558 192.073C80.034 193.035 79.762 193.76 79.762 193.76H94.33C132.884 193.76 164.141 155.042 164.141 107.283C164.142 59.5251 132.885 20.8081 94.3311 20.8081Z" fill="#325C80"/>
<path d="M149.574 107.283C149.574 155.042 118.32 193.76 79.7629 193.76C41.2089 193.76 9.95398 155.042 9.95398 107.283C9.95398 59.5251 41.2079 20.8081 79.7629 20.8081C118.32 20.8081 149.574 59.5251 149.574 107.283Z" fill="#3F74A0"/>
<path d="M73.312 33.0562H60.807C61.079 33.5662 61.349 34.0351 61.613 34.4731C34.12 41.2141 13.387 71.2471 13.387 107.283C13.387 143.265 34.057 173.264 61.489 180.064C61.041 180.89 60.806 181.513 60.806 181.513H73.311C106.405 181.513 133.233 148.278 133.233 107.283C133.233 66.2881 106.406 33.0562 73.312 33.0562Z" fill="#325C80"/>
<path d="M120.731 107.283C120.731 148.278 93.903 181.513 60.806 181.513C27.712 181.513 0.884033 148.278 0.884033 107.283C0.884033 66.2881 27.712 33.0562 60.806 33.0562C93.903 33.0562 120.731 66.2881 120.731 107.283Z" fill="#3F74A0"/>
<path d="M377.636 371.39C359.107 372.102 345.534 357.727 345.125 357.285C361.357 367.723 377.089 365.28 377.089 365.28C377.227 367.104 377.411 369.268 377.636 371.39Z" fill="#A77860"/>
</svg>
