<svg width="326" height="646" viewBox="0 0 326 646" fill="none" xmlns="http://www.w3.org/2000/svg">
<path d="M75.7361 127.463C76.1301 120.765 75.1641 114.421 75.1641 114.421C70.1061 127.312 63.149 133.853 58.209 137.067C56.586 137.461 55.3051 137.618 54.6521 137.461C51.9161 136.803 49.3071 135.932 46.8181 134.898C54.1301 129.261 61.2211 120.337 61.6541 119.781C55.0851 125.834 47.0991 129.98 41.5811 132.385C27.9871 125.001 18.6699 112.925 13.6179 104.973C48.5039 93.9589 58.771 72.0879 58.771 72.0879C27.762 96.8419 14.0341 98.0389 9.22412 97.1849C9.16112 97.0609 9.13306 96.9999 9.13306 96.9999C55.7761 84.6369 68.7001 30.1269 84.4351 11.0209C100.17 -8.08509 119.277 6.52494 119.277 6.52494C119.277 6.52494 117.254 74.1279 75.7361 127.463Z" fill="#A9453D"/>
<path d="M157.035 111.504C157.035 111.504 187.524 127.703 184.994 142.205C180.961 165.335 163.976 215.762 163.976 215.762L213.564 191.062L222.431 201.76C222.431 201.76 162.208 261.883 140.995 248.073C119.782 234.264 157.035 111.504 157.035 111.504Z" fill="#F4A671"/>
<path d="M222.338 201.794C222.338 201.794 238.867 193.561 234.374 183.338C229.88 173.114 219.144 170.571 217.059 174.376C214.973 178.181 213.472 191.096 213.472 191.096L222.338 201.794Z" fill="#C0783D"/>
<path d="M164.464 23.103C164.464 23.103 131.027 -17.0771 113.326 8.63293C113.326 8.63293 100.12 14.112 95.344 36.59C90.47 59.524 105.721 76.9569 113.608 72.6489C118.665 69.8859 122.493 78.7369 122.493 78.7369L164.464 23.103Z" fill="#A9453D"/>
<path d="M153.955 111.236C154.082 111.294 141.663 117.742 132.321 115.187C123.534 112.791 112.397 109.844 112.517 109.819C116.239 109.08 122.707 95.5189 122.628 73.5449L124.311 73.8759L152.597 79.478C152.597 79.478 151.953 88.379 151.935 96.765C151.916 103.807 152.343 110.484 153.955 111.236Z" fill="#FFB27D"/>
<path d="M152.598 79.477C152.598 79.477 151.954 88.378 151.936 96.764C136.107 96.319 127.741 81.879 124.312 73.875L152.598 79.477Z" fill="#F4A671"/>
<path d="M121.391 70.7969C121.391 70.7969 113.096 57.6909 111.105 46.4829C109.683 38.4819 113.758 8.82392 143.561 13.0949C143.561 13.0949 152.217 13.9479 160.354 19.4439C166.825 23.8139 176.164 33.249 165.722 59.13L163.009 67.872L121.391 70.7969Z" fill="#A9453D"/>
<path d="M157.884 87.418C157.884 87.418 120.434 88.036 120.408 64.708C120.382 41.38 115.531 25.7489 139.441 24.3679C163.35 22.9869 168.005 31.884 169.908 39.668C171.812 47.452 167.625 86.656 157.884 87.418Z" fill="#FFB27D"/>
<path d="M156.498 23.796C156.498 23.796 146.244 51.164 130.508 55.211C114.772 59.257 107.945 55.041 107.945 55.041C107.945 55.041 120.015 45.453 122.521 28.714C122.521 28.714 148.764 10.771 156.498 23.796Z" fill="#A9453D"/>
<path d="M153.956 26.0189C153.956 26.0189 161.614 32.1289 163.48 38.0689C165.347 44.0089 166.187 56.238 169.751 55.823C169.751 55.823 177.476 37.221 168.794 26.698C159.59 15.539 153.956 26.0189 153.956 26.0189Z" fill="#A9453D"/>
<path d="M77.4561 286.002C90.5891 256.55 96.8721 248.222 97.0911 238.955C97.1531 236.432 96.9669 232.639 96.4109 227.958C95.7309 222.152 94.4729 214.977 92.4099 207.16C92.4099 207.16 92.4101 207.16 92.4041 207.16C92.3871 207.097 92.365 207.014 92.342 206.918C92.173 206.238 91.824 204.732 91.386 202.574C87.801 184.816 78.237 122.731 112.583 109.733C112.932 109.694 113.274 109.666 113.605 109.643C128.587 108.626 157.157 111.515 157.157 111.515C157.157 111.515 162.439 118.848 168.217 129.806C174.64 142 181.681 158.685 182.726 174.734C183.794 191.121 178.247 202.517 175.865 219.028C173.808 233.217 174.084 251.172 182.885 279.308C202.328 341.483 70.2011 302.276 77.4561 286.002Z" fill="#FFB27D"/>
<path d="M155.379 26.943C155.379 26.943 148.073 55.603 128.218 64.781C128.218 64.781 148.073 47.173 149.759 28.254C151.445 9.33504 155.379 26.943 155.379 26.943Z" fill="#A9453D"/>
<path d="M175.865 219.028C175.865 219.028 126.014 233.307 96.4109 227.958C95.7309 222.152 94.4729 214.977 92.4099 207.16C92.4099 207.16 92.4101 207.16 92.4041 207.16C92.3871 207.097 92.365 207.014 92.342 206.918C92.173 206.238 91.824 204.732 91.386 202.574C100.833 197.045 111.971 193.094 111.971 193.094L175.865 219.028Z" fill="#F4A671"/>
<path d="M182.424 186.39C181.188 197.219 177.642 206.7 175.865 219.029C141.592 223.524 104.182 211.425 92.41 207.161C92.41 207.161 92.4102 207.161 92.4042 207.161C92.3872 207.098 92.3651 207.015 92.3421 206.919C90.7741 200.625 74.0671 124.312 112.583 109.734C117.545 111.347 121.224 116.861 127.986 119.479C141.798 124.824 157.721 126.34 168.646 125.301C173.102 133.758 177.42 148.885 180.264 159.95C181.523 164.839 182.405 169.818 182.725 174.734C182.997 178.888 182.846 182.715 182.424 186.39Z" fill="#AEC3FF"/>
<path d="M153.955 111.236C153.955 111.236 162.734 110.861 165.545 112.734C168.355 114.607 182.59 131.279 183.34 133.527C183.34 133.527 165.733 132.028 164.046 133.152C164.046 133.152 170.463 129.406 153.955 111.236Z" fill="#AEC3FF"/>
<path d="M294.419 136.524C294.419 136.524 322.518 124.535 323.641 128.282C324.765 132.028 327.013 148.886 321.019 151.135C315.025 153.384 293.295 151.135 293.295 151.135L294.419 136.524Z" fill="#C0783D"/>
<path d="M232.572 630.445L218.836 626.266C218.836 626.266 155.304 553.076 169.578 476.24C169.729 475.42 169.734 474.582 169.358 473.841C169.352 473.829 169.352 473.824 169.347 473.819C166.599 468.384 154.775 444.687 142.501 415.286C136.629 401.209 130.649 385.817 125.52 370.492C122.486 361.439 119.749 352.409 117.5 343.687C117.478 343.602 117.461 343.541 117.45 343.491C117.432 343.428 117.427 343.395 117.427 343.395C111.909 321.861 109.403 302.243 112.864 288.823L181.472 272.437C181.472 272.437 188.294 300.135 195.533 335.943C205.671 386.109 216.618 452.195 210.757 480.354C205.554 505.332 232.572 630.445 232.572 630.445Z" fill="#FFB27D"/>
<path d="M206.836 194.358C206.836 194.358 212.737 200.89 214.564 209.39C214.564 209.39 222.291 201.874 222.748 201.699C223.204 201.523 229.983 197.73 232.933 193.375C235.884 189.02 237.851 185.414 233.917 178.857C229.983 172.301 218.743 170.428 217.433 171.74C216.121 173.051 212.562 189.347 212.562 189.347C212.562 189.347 212.157 190.583 206.836 194.358Z" fill="#213F7A"/>
<path d="M142.502 415.285C136.63 401.208 130.65 385.816 125.521 370.491C122.487 361.438 119.75 352.408 117.501 343.686C117.479 343.601 117.462 343.54 117.451 343.49C117.433 343.427 117.428 343.394 117.428 343.394L122.621 342.821L175.281 336.999C175.281 336.999 175.618 340.972 176.073 347.569C177.181 363.557 160.255 391.054 142.502 415.285Z" fill="#F4A671"/>
<path d="M172.382 290.874L141.52 359.433C141.362 359.354 141.205 359.276 141.047 359.197C123.548 407.295 98.4511 469.39 78.7661 490.368C61.3061 508.974 19.154 629.829 19.154 629.829L7.82005 625.8C7.82005 625.8 -6.46509 523.525 45.7739 465.39C46.3309 464.772 46.7679 464.058 46.8369 463.232V463.205C47.2859 457.591 49.2469 434.641 53.3779 406.341C54.3779 399.474 55.507 392.297 56.772 384.97C58.61 374.349 60.7341 363.419 63.1731 352.713C63.2121 352.533 63.251 352.359 63.29 352.191C63.392 349.595 63.64 345.262 64.251 339.615C65.089 331.905 66.601 321.756 69.343 310.259C69.427 309.922 69.5061 309.579 69.5901 309.237C75.7601 283.825 84.571 271.024 84.571 271.024C84.571 271.024 131.501 283.994 147.797 285.118C164.093 286.238 172.382 290.874 172.382 290.874Z" fill="#FFB27D"/>
<path d="M195.534 335.944C193.168 339.664 185.503 343.862 176.073 347.571L175.955 347.616C165.019 351.903 151.741 355.534 141.615 357.012C133.039 358.265 126.722 357.967 126.02 355.219C120.501 333.686 109.403 302.244 112.865 288.824L181.473 272.437C181.473 272.437 188.296 300.137 195.534 335.944Z" fill="#F99746"/>
<path d="M7.10097 645.186H14.986C17.627 644.77 19.5768 644.006 22.2858 643.652C26.3988 643.113 28.2928 644.798 28.6688 645.186C28.7198 645.237 28.7418 645.265 28.7418 645.265H62.235C63.078 644.063 62.268 641.275 61.476 639.224C60.942 637.83 59.779 636.774 58.34 636.358C54.788 635.33 47.7859 634.414 41.3739 628.609C37.7669 625.349 23.954 616.623 23.954 616.623L23.881 616.606C23.577 616.611 22.133 617.055 15.851 622.36C12.603 625.096 7.06801 618.494 7.06801 618.494C7.06801 618.494 6.02782 619.353 5.25282 620.955C4.62882 622.22 4.17383 623.956 4.53383 626.098C5.03383 629.116 3.42093 634.724 2.13393 638.517C1.35293 640.815 0.695939 642.445 0.695939 642.445C0.695939 642.445 0.317968 644.337 7.10097 645.186Z" fill="#485CA6"/>
<path d="M5.25195 620.954C7.13495 622.28 11.1069 624.893 13.7429 625.236C17.3009 625.703 23.9541 616.622 23.9541 616.622L23.8811 616.605C23.5771 616.61 22.1331 617.054 15.8511 622.359C12.6031 625.095 7.06812 618.493 7.06812 618.493C7.06812 618.493 6.02695 619.353 5.25195 620.954Z" fill="#A9453D"/>
<path d="M7.10118 645.186H14.9862C17.6272 644.77 19.577 644.006 22.286 643.652C26.399 643.113 28.2931 644.798 28.6691 645.186C28.7201 645.237 28.7421 645.265 28.7421 645.265H62.2352C63.0782 644.063 62.2682 641.275 61.4762 639.224C60.4582 638.319 60.1722 643.152 59.6102 643.922C59.0482 644.692 32.288 644.202 30.743 643.078C29.198 641.955 24.561 639.988 18.098 641.533C12.473 642.876 4.18417 639.431 2.13317 638.515C1.35217 640.813 0.695179 642.443 0.695179 642.443C0.695179 642.443 0.318185 644.337 7.10118 645.186Z" fill="#A9453D"/>
<path d="M212.766 645.186H220.651C223.292 644.77 225.242 644.006 227.95 643.652C232.064 643.113 233.958 644.798 234.335 645.186C234.385 645.237 234.407 645.265 234.407 645.265H267.9C268.743 644.063 267.933 641.275 267.141 639.224C266.607 637.83 265.444 636.774 264.005 636.358C260.453 635.33 253.451 634.414 247.039 628.609C243.432 625.349 229.619 616.623 229.619 616.623L229.546 616.606C229.242 616.611 227.798 617.055 221.516 622.36C218.268 625.096 212.733 618.494 212.733 618.494C212.733 618.494 211.693 619.353 210.918 620.955C210.294 622.22 209.839 623.956 210.198 626.098C210.698 629.116 209.086 634.724 207.799 638.517C207.019 640.815 206.361 642.445 206.361 642.445C206.361 642.445 205.982 644.337 212.766 645.186Z" fill="#485CA6"/>
<path d="M210.917 620.954C212.799 622.28 216.772 624.893 219.408 625.236C222.965 625.703 229.619 616.622 229.619 616.622L229.546 616.605C229.242 616.61 227.798 617.054 221.516 622.359C218.268 625.095 212.733 618.493 212.733 618.493C212.733 618.493 211.692 619.353 210.917 620.954Z" fill="#A9453D"/>
<path d="M212.766 645.186H220.651C223.292 644.77 225.242 644.006 227.95 643.652C232.064 643.113 233.958 644.798 234.335 645.186C234.385 645.237 234.407 645.265 234.407 645.265H267.9C268.743 644.063 267.933 641.275 267.141 639.224C266.123 638.319 265.837 643.152 265.275 643.922C264.713 644.692 237.953 644.202 236.408 643.078C234.862 641.955 230.226 639.988 223.764 641.533C218.139 642.876 209.85 639.431 207.798 638.515C207.018 640.813 206.36 642.443 206.36 642.443C206.36 642.443 205.982 644.337 212.766 645.186Z" fill="#A9453D"/>
<path d="M182.424 186.39C123.352 183.541 98.344 159.939 98.344 159.939L180.266 159.951C181.525 164.84 182.407 169.819 182.727 174.735C182.997 178.888 182.846 182.715 182.424 186.39Z" fill="#94B0ED"/>
<path d="M293.295 151.135C293.295 151.135 245.805 166.776 211.25 167.619C182.18 168.327 131.927 171.908 105.184 163.052C100.131 161.377 96.5851 159.198 95.1141 156.382C85.8421 138.68 101.11 120.377 101.11 120.377C101.11 120.377 109.736 121.26 122.722 122.501C155.49 125.648 197.698 135.252 217.619 134.65C245.43 133.807 270.817 135.774 294.419 136.524L293.295 151.135Z" fill="#FFB27D"/>
<path d="M105.184 163.052C100.131 161.377 96.5851 159.198 95.1141 156.382C85.8421 138.68 101.11 120.377 101.11 120.377C101.11 120.377 109.736 121.26 122.722 122.501C119.698 125.631 103.705 143.209 105.184 163.052Z" fill="#AEC3FF"/>
<path d="M286.927 136.243C286.927 136.243 288.18 146.672 284.597 153.836C284.597 153.836 292.675 151.334 293.377 151.369C294.08 151.404 310.341 152.703 316.102 152.071C321.862 151.439 324.859 151.883 325.42 141.488C325.983 131.092 325.701 126.877 323.734 126.783C321.767 126.689 312.307 128.376 294.887 135.868C294.887 135.868 293.857 136.384 286.927 136.243Z" fill="#213F7A"/>
<path d="M84.572 271.019C84.572 271.019 67.0541 292.122 63.2891 352.189C63.2891 352.189 86.871 356.998 91.929 355.5C96.987 354.001 105.79 332.46 105.79 332.46C105.79 332.46 100.92 353.626 105.602 357.561C110.285 361.495 139.881 365.053 139.881 365.053L175.097 286.754C175.097 286.754 126.106 281.134 84.572 271.019Z" fill="#F99746"/>
<path d="M82.469 272.61C82.469 272.61 125.458 294.246 154.961 287.783C184.464 281.32 182.885 279.308 182.885 279.308L178.001 261.933C178.001 261.933 162.548 270.643 142.036 269.8C121.524 268.957 91.1799 255.751 91.1799 255.751L82.469 272.61Z" fill="#EF7E29"/>
</svg>
