<svg width="770" height="977" viewBox="0 0 770 977" fill="none" xmlns="http://www.w3.org/2000/svg">
<path d="M550.268 153.595C550.268 153.595 551.644 145.178 550.076 141.142C548.796 137.848 546.195 133.397 544.923 130.45C543.652 127.5 539.658 114.233 539.592 110.828C539.565 109.435 543.077 100.815 542.687 97.9911C542.295 95.1671 540.744 89.5361 543.416 89.2871C546.091 89.0391 548.991 93.7281 548.991 93.7281C548.991 93.7281 549.345 91.2401 551.625 90.3551C556.059 88.6361 557.769 90.6022 557.769 90.6022C557.769 90.6022 559.485 87.5581 561.525 87.2681C566.022 86.6281 568.209 88.8961 568.209 88.8961C568.209 88.8961 570.111 87.1691 573.203 87.3651C577.154 87.6151 578.566 90.919 578.566 90.919C578.566 90.919 583.66 90.014 585.054 92.289C586.448 94.564 586.312 96.8261 586.861 98.8541C587.41 100.881 587.072 119.084 580.454 131.901C575.074 142.322 574.592 158.628 574.592 158.628L550.268 153.595Z" fill="#EEA886"/>
<path d="M215.116 153.595C215.116 153.595 213.739 145.178 215.307 141.142C216.587 137.848 219.189 133.397 220.46 130.45C221.732 127.5 225.726 114.233 225.792 110.828C225.819 109.435 222.306 100.815 222.697 97.9912C223.088 95.1672 224.64 89.5362 221.967 89.2872C219.293 89.0392 216.393 93.7282 216.393 93.7282C216.393 93.7282 216.578 91.1362 214.297 90.2502C209.865 88.5312 207.589 90.3222 207.589 90.3222C207.589 90.3222 205.898 87.5572 203.858 87.2672C199.363 86.6272 197.216 88.4172 197.216 88.4172C197.216 88.4172 195.201 86.9162 192.112 87.1112C188.161 87.3612 186.583 90.6652 186.583 90.6652C186.583 90.6652 181.549 89.9332 180.155 92.2082C178.76 94.4802 179.073 96.8242 178.524 98.8532C177.975 100.88 178.312 119.083 184.931 131.9C190.311 142.321 190.792 158.627 190.792 158.627L215.116 153.595Z" fill="#EEA886"/>
<path d="M683.586 98.623H84.073V111.216H683.586V98.623Z" fill="#6392D1"/>
<path d="M335.36 375.571C335.36 375.571 319.21 384.196 309.69 384.874C300.172 385.551 278.623 371.936 269.812 360.103C261.001 348.27 260.996 347.016 250.894 336.422C240.792 325.828 227.657 296.49 224.348 284.46C221.038 272.43 206.974 247.939 205.497 242.409C204.02 236.882 197.152 213.612 194.373 201.701C191.385 188.891 189.811 148.724 189.811 148.724L214.557 146.872C214.557 146.872 235.794 202.397 243.322 217.349C250.849 232.302 246.674 241.516 254.15 253.252C261.626 264.988 287.632 293.91 294.056 311.421C300.479 328.929 315.7 331.458 324.398 350.507C333.098 369.555 335.36 375.571 335.36 375.571Z" fill="#EEA886"/>
<path d="M430.315 376.945C430.315 376.945 446.47 385.578 455.986 386.256C458.631 386.449 462.216 385.52 466.201 383.84C466.889 383.551 467.578 383.237 468.29 382.899C480.036 377.372 491.611 367.577 496.05 361.236C504.672 349.633 504.756 348.331 514.779 337.801C520.164 332.16 526.393 321.21 531.562 310.379C536.089 300.863 539.786 291.469 541.331 285.844C544.639 273.816 558.707 249.317 560.18 243.785C570.722 203.616 573.786 207.812 575.481 149.334L550.882 148.021C550.882 148.021 529.885 203.781 522.35 218.73C514.828 233.678 519.005 242.892 511.532 254.628C504.734 265.29 482.661 290.14 473.858 307.72C472.965 309.495 472.215 311.199 471.625 312.804C469.535 318.492 466.528 322.584 463.112 326.195C456.011 333.693 447.148 339.019 441.28 351.89C432.573 370.932 430.315 376.945 430.315 376.945Z" fill="#EEA886"/>
<path d="M581.794 917.925C578.89 911.179 565.096 856.504 558.562 824.555C552.028 792.601 538.959 753.906 534.966 747.869C530.973 741.832 515.666 692.047 511.672 671.099C507.68 650.154 460.912 560.773 458.734 556.511C456.556 552.251 451.565 538.937 451.565 538.937L384.211 543.885L316.857 538.937C316.857 538.937 311.865 552.251 309.688 556.511C307.509 560.773 255.512 655.626 251.519 676.574C247.527 697.519 237.449 741.833 233.456 747.869C229.463 753.905 216.394 792.6 209.86 824.555C203.327 856.504 189.532 911.179 186.628 917.925C183.724 924.671 211.676 925.025 211.676 925.025C211.676 925.025 252.333 844.081 261.408 829.17C270.483 814.259 278.832 788.697 279.921 772.366C281.011 756.035 292.627 747.513 302.79 735.091C312.955 722.664 361.961 628.582 371.036 620.064C381.73 610.024 386.964 610.279 397.386 620.064C406.461 628.583 455.467 722.665 465.632 735.091C475.795 747.514 487.411 756.035 488.5 772.366C489.59 788.697 497.939 814.259 507.015 829.17C516.089 844.081 556.746 925.025 556.746 925.025C556.746 925.025 584.698 924.671 581.794 917.925Z" fill="#2F4563"/>
<path d="M579.658 911.367C579.658 911.367 593.592 929.614 601.487 933.872C609.382 938.128 638.332 950.062 643.051 959.911C646.361 966.818 641.831 980.446 613.994 975.938C586.157 971.429 576.628 956.407 568.188 954.656C559.749 952.903 550.586 946.385 550.042 934.02C549.498 921.654 554.575 923.859 553.486 919.351C552.399 914.846 579.658 911.367 579.658 911.367Z" fill="#5279AD"/>
<path d="M188.522 912.186C188.522 912.186 175.968 929.615 168.072 933.873C160.177 938.129 131.228 950.063 126.509 959.912C123.199 966.819 127.729 980.447 155.566 975.939C183.403 971.43 192.932 956.408 201.372 954.657C209.811 952.904 218.974 946.386 219.518 934.021C220.062 921.655 214.986 923.86 216.075 919.352C217.163 914.846 188.522 912.186 188.522 912.186Z" fill="#5279AD"/>
<path d="M468.326 383.991C460.917 358.456 472.062 304.845 472.062 304.845C457.674 298.641 439.153 304.075 431.207 304.075C423.262 304.075 401.357 298.024 401.357 298.024H383.64H365.924C365.924 298.024 344.019 304.075 336.073 304.075C328.127 304.075 309.599 298.64 295.211 304.845C295.211 304.845 306.392 359.362 298.982 384.899C298.982 384.899 316.317 432.679 320.504 439.756C324.691 446.831 320.557 472.959 320.413 479.547C320.208 488.981 318.772 515.852 316.855 538.938C316.855 538.938 338.104 551.591 383.638 552.67C428.71 549.746 451.562 538.938 451.562 538.938C448.708 511.442 446.868 488.293 445.735 479.342C444.909 472.806 442.586 446.831 446.773 439.756C450.964 432.679 468.326 383.991 468.326 383.991Z" fill="#E55353"/>
<path d="M515.781 303.663C523.013 304.325 527.324 307.068 532.336 308.734C532.082 309.288 531.828 309.832 531.563 310.377C526.396 321.208 520.165 332.157 514.78 337.798C505.169 347.893 504.697 349.51 497.066 359.859C490.981 359.859 485.837 360.379 483.277 362.117C478.278 365.497 472.362 376.413 469.391 382.354C468.22 384.708 467.507 386.279 467.507 386.279C467.507 386.279 467.302 385.275 466.987 383.49C465.442 374.59 461.107 346.202 464.693 324.443C465.973 316.669 468.267 309.749 472.058 304.845C472.058 304.845 473.109 305.33 474.739 306.03C478.663 307.718 485.98 310.654 490.039 310.944C495.785 311.354 504.709 302.637 515.781 303.663Z" fill="#EEA886"/>
<path d="M298.983 384.898C298.983 384.898 298.388 383.56 297.385 381.52C294.704 376.063 289.077 365.558 283.994 362.116C281.349 360.328 275.965 359.821 269.626 359.858C261.004 348.253 260.919 346.95 250.897 336.42C245.511 330.781 239.281 319.829 234.113 308.998C239.486 307.368 243.857 304.361 251.488 303.662C262.561 302.636 271.484 311.352 277.232 310.942C281.06 310.665 287.774 308.055 291.818 306.342C293.847 305.484 295.211 304.843 295.211 304.843C299.087 309.867 301.357 316.931 302.565 324.816C305.924 347.005 300.803 380.783 298.983 384.898Z" fill="#EEA886"/>
<path d="M406.198 269.146C406.198 269.146 403.8 288.064 409.356 299.486C409.356 299.486 415.035 324.299 387.535 326.111C360.035 327.926 358.858 303.274 358.858 303.274C358.858 303.274 365.248 294.288 360.322 270.326C355.395 246.364 406.198 269.146 406.198 269.146Z" fill="#EEA886"/>
<path d="M387.689 171.817C387.689 171.817 423.171 176.721 419.039 233.275C414.906 289.83 383.597 285.89 381.51 285.878C379.423 285.868 350.205 287.597 346.4 218.742C346.4 218.742 344.276 167.812 387.689 171.817Z" fill="#EEA886"/>
<path d="M418.732 217.323C418.732 217.323 422.496 213.017 424.004 217.259C425.514 221.5 419.478 240.036 419.038 241.592C419.038 241.592 418.37 243.264 417.425 242.373C416.48 241.48 418.732 217.323 418.732 217.323Z" fill="#EEA886"/>
<path d="M347.019 218.19C347.019 218.19 343.148 213.979 341.747 218.254C340.347 222.529 347.003 241.744 347.326 242.458C347.326 242.458 348.036 244.113 348.959 243.2C349.881 242.286 347.019 218.19 347.019 218.19Z" fill="#EEA886"/>
<path d="M419.407 225.98L414.499 232.993C414.499 232.993 414.307 217.854 413.441 215.5C412.577 213.146 414.166 204.843 413.449 203.146C412.732 201.452 389.369 208.332 350.734 205.265C350.734 205.265 355.323 218.806 352.832 219.829C350.341 220.853 351.944 237.585 351.944 237.585L347.674 232.884C347.674 232.884 342.341 204.362 342.693 199.574C343.161 193.199 340.338 163.547 394.691 167.452C400.914 167.899 406.926 170.036 411.972 173.785C417.641 177.996 423.522 184.634 423.202 193.936C422.783 206.232 419.407 225.98 419.407 225.98Z" fill="#E8734D"/>
<path d="M362.602 277.211C362.602 277.211 378.686 295.174 403.176 276.315C403.176 276.315 396.503 290.358 381.876 291.006C367.248 291.654 362.602 277.211 362.602 277.211Z" fill="#A77860"/>
<path d="M341.415 303.573C341.415 303.573 342.261 368.07 383.641 370.069V296.076C383.641 296.076 364.414 296.764 341.415 303.573Z" fill="#EEA886"/>
<path d="M425.867 303.573C425.867 303.573 425.021 368.07 383.64 370.069V296.076C383.64 296.076 402.868 296.764 425.867 303.573Z" fill="#EEA886"/>
<path d="M548.24 95.392C548.24 95.392 547.369 111.586 551.794 115.242C556.22 118.897 556.886 113.068 556.886 113.068C556.886 113.068 556.121 118.823 561.034 119.826C565.949 120.831 566.337 113.969 566.337 113.969C566.337 113.969 567.028 118.464 572.235 117.782C577.443 117.1 576.357 111.353 576.357 111.353C576.357 111.353 581.162 117.157 584.513 111.941C590.173 103.133 585.228 92.2111 585.228 92.2111C585.228 92.2111 583.764 89.689 578.8 90.668C578.8 90.668 575.665 84.238 568.166 88.42C568.166 88.42 560.712 84.149 557.792 90.324C557.793 90.322 549.563 86.21 548.24 95.392Z" fill="#D6926F"/>
<path d="M217.143 95.392C217.143 95.392 218.015 111.586 213.59 115.242C209.164 118.897 208.498 113.068 208.498 113.068C208.498 113.068 209.263 118.823 204.349 119.826C199.435 120.831 199.047 113.969 199.047 113.969C199.047 113.969 198.356 118.464 193.148 117.782C187.941 117.1 189.026 111.353 189.026 111.353C189.026 111.353 184.222 117.157 180.869 111.941C175.21 103.133 180.156 92.2111 180.156 92.2111C180.156 92.2111 181.62 89.689 186.584 90.668C186.584 90.668 189.719 84.238 197.218 88.42C197.218 88.42 204.672 84.149 207.591 90.324C207.59 90.322 215.821 86.21 217.143 95.392Z" fill="#D6926F"/>
<path d="M705.87 0.817139H674.115V210.632H705.87V0.817139Z" fill="#5279AD"/>
<path d="M737.625 22.1482H703.135V189.298H737.625V22.1482Z" fill="#5279AD"/>
<path d="M769.38 44.688H734.083V166.758H769.38V44.688Z" fill="#5279AD"/>
<path d="M63.6897 210.632H95.4458L95.4458 0.816895H63.6897L63.6897 210.632Z" fill="#5279AD"/>
<path d="M31.9348 189.298H69.4878L69.4878 22.1479H31.9348L31.9348 189.298Z" fill="#5279AD"/>
<path d="M0.180298 166.758H35.7283L35.7283 44.6877H0.180298L0.180298 166.758Z" fill="#5279AD"/>
</svg>
