<svg width="237" height="237" viewBox="0 0 237 237" fill="none" xmlns="http://www.w3.org/2000/svg">
<path d="M57.937 226.805C57.937 226.805 59.536 233.758 57.648 235.265C55.76 236.772 34.508 236.719 31.657 235.409C29.887 234.596 39.72 231.802 42.595 230.546C43.226 230.27 43.804 229.964 44.322 229.653C46.163 228.548 47.183 226.466 47.02 224.324L46.12 215.265L58.569 215.731L57.937 226.805Z" fill="#F9BBB9"/>
<path d="M89.399 43.694C89.399 43.694 91.207 57.376 88.645 68.486C86.154 79.287 90.687 82.089 101.755 84.331C112.036 86.413 116.22 83.199 120.976 78.157C125.732 73.114 121.375 74.189 115.481 54.454C109.587 34.719 101.389 27.342 101.389 27.342L89.399 43.694Z" fill="#39415B"/>
<path d="M127.556 135.499C127.556 135.499 131.765 125.203 150.326 140.084C157.764 145.263 163.492 154.172 167.359 161.404C172.882 171.733 181.063 179.094 187.229 183.594C196.289 190.205 209.255 198.717 223.314 215.054C223.314 215.054 218.926 221.992 214.738 220.538C211.209 216.193 173.622 206.446 161.94 197.086C155.779 192.15 148.177 186.566 127.583 170.717C123.514 167.586 117.014 168.983 112.378 170.549C98.869 175.113 83.647 175.996 64.502 178.06C63.271 206.809 58.32 222.13 58.32 222.13C58.32 222.13 49.292 224.101 46.681 221.041C46.4 219.327 36.911 163.149 43.677 156.383C50.443 149.617 103.468 140.9 103.468 140.9L127.556 135.499Z" fill="#197977"/>
<path d="M125.68 73.578C125.68 73.578 91.739 74.116 90.61 74.707C89.48 75.298 93.726 85.001 93.201 89.129C93.201 89.129 110.892 96.068 118.972 88.793C122.381 85.723 125.68 73.578 125.68 73.578Z" fill="#CF72EE"/>
<path opacity="0.08" d="M112.74 135.499C112.74 135.499 138.804 140.408 146.015 139.489L146.562 142.783C146.562 142.783 132.567 145.266 115.223 139.836C108.236 137.649 104.271 135.792 104.271 135.792L112.74 135.499Z" fill="#101010"/>
<path d="M145.425 82.322C144.607 115.998 155.261 143.35 155.261 143.35C134.85 150.646 106.201 147.12 98.607 141.736C100.053 118.337 102.041 84.669 106.418 76.449C107.809 73.836 122.72 73.578 125.68 73.578C128.657 73.578 145.745 69.126 145.425 82.322Z" fill="#CF72EE"/>
<path opacity="0.08" d="M105.337 79.858C105.337 79.858 103.264 88.165 103.032 91.542L101.579 91.352C101.579 91.352 104.04 82.25 105.337 79.858Z" fill="#101010"/>
<path d="M90.61 74.706C90.61 74.706 53.557 78.227 47.75 78.227C41.944 78.227 15.235 79.391 15.235 79.391C15.235 79.391 3.56 81.211 1.107 82.628C-1.347 84.045 10.978 84.045 10.978 84.045C10.978 84.045 5.70201 86.544 6.72001 87.132C7.73901 87.72 14.268 84.332 17.752 84.332C21.236 84.332 49.686 89.129 54.331 89.129C58.976 89.129 93.201 89.129 93.201 89.129C93.201 89.129 92.321 75.694 90.61 74.706Z" fill="#F9BBB9"/>
<path d="M146.977 77.12C146.977 77.12 184.03 80.641 189.837 80.641C195.643 80.641 222.352 81.805 222.352 81.805C222.352 81.805 234.027 83.625 236.48 85.041C238.934 86.458 226.609 86.458 226.609 86.458C226.609 86.458 231.885 88.957 230.867 89.545C229.849 90.133 223.319 86.746 219.835 86.746C216.351 86.746 187.901 91.543 183.256 91.543C178.611 91.543 140.51 89.546 140.51 89.546C140.51 89.546 145.266 78.108 146.977 77.12Z" fill="#F9BBB9"/>
<path d="M132.513 68.486L152.649 73.578V91.542C152.649 91.542 134.64 93.278 133.58 93.278C132.521 93.278 132.513 68.486 132.513 68.486Z" fill="#CF72EE"/>
<path d="M114.125 69.446C114.125 69.446 114.545 71.353 114.125 75.002C114.125 75.002 120.281 75.999 125.36 75.376C130.807 74.707 133.216 71.486 133.216 71.486L133.416 62.66C133.416 62.66 116.845 70.48 114.125 69.446Z" fill="#F9BBB9"/>
<path d="M114.311 71.989C114.311 71.989 124.076 71.853 128.116 66.902C128.116 66.902 118.134 69.653 114.124 69.515L114.311 71.989Z" fill="#EFA5A5"/>
<path d="M129.116 11.312C129.116 11.312 134.63 12.457 140.468 15.644C146.454 18.911 152.782 24.324 153.858 32.848C154.478 37.756 154.192 42.526 153.014 46.922C150.149 57.608 142.007 66.086 128.756 68.975C119.404 71.014 109.185 70.012 101.454 64.668C93.723 59.324 88.85 47.653 90.447 37.767C92.044 27.882 96.413 22.535 103.263 17.787C110.113 13.038 119.074 10.871 129.116 11.312Z" fill="#F9BBB9"/>
<path d="M118.491 50.837C117.033 52.766 113.793 53.451 112.985 50.52C112.715 49.541 111.171 49.888 111.442 50.873C111.899 52.53 113.196 53.869 114.945 54.119C116.944 54.405 118.669 53.219 119.822 51.695C120.437 50.881 119.102 50.029 118.491 50.837Z" fill="#EFA5A5"/>
<path d="M115.1 47.305C115.081 47.306 115.062 47.305 115.044 47.304C114.954 47.299 114.154 47.249 113.636 47.116C112.382 46.794 111.919 46.147 111.751 45.662C111.578 45.16 111.549 44.33 112.394 43.228C113.144 42.251 113.223 40.314 113.191 39.65C113.174 39.299 113.444 39 113.795 38.982C113.8 38.982 113.805 38.982 113.809 38.982C114.155 38.972 114.446 39.239 114.464 39.586C114.47 39.702 114.596 42.453 113.406 44.004C113.021 44.506 112.857 44.959 112.957 45.246C113.05 45.515 113.404 45.74 113.954 45.882C114.292 45.969 114.91 46.02 115.12 46.033C115.472 46.054 115.74 46.355 115.719 46.707C115.698 47.038 115.427 47.296 115.1 47.305Z" fill="#EFA5A5"/>
<path d="M132.823 40.211C132.82 41.61 132.016 42.742 131.027 42.74C130.038 42.738 129.238 41.602 129.241 40.204C129.244 38.805 130.048 37.673 131.038 37.675C132.026 37.677 132.826 38.812 132.823 40.211Z" fill="#2D3449"/>
<path d="M105.337 40.064C105.334 41.463 104.53 42.595 103.541 42.593C102.552 42.591 101.752 41.455 101.755 40.057C101.758 38.658 102.562 37.526 103.551 37.528C104.54 37.53 105.34 38.665 105.337 40.064Z" fill="#2D3449"/>
<path d="M146.873 48.328C146.986 52.189 143.948 55.411 140.087 55.524C136.226 55.637 133.004 52.599 132.891 48.738C132.778 44.877 135.816 41.655 139.677 41.542C143.538 41.429 146.76 44.467 146.873 48.328Z" fill="#EFA5A5"/>
<path d="M92.249 53.179C93.147 53.598 94.154 53.82 95.213 53.789C98.833 53.683 101.683 50.662 101.577 47.041C101.471 43.42 98.45 40.571 94.829 40.677C93.471 40.717 92.222 41.166 91.196 41.904" fill="#EFA5A5"/>
<path d="M95.822 59.029C84.707 44.313 87.741 21.672 98.921 9.81701C110.101 -2.03799 134.075 1.26401 134.075 1.26401C156.092 5.17301 163.625 17.665 164.206 37.488C164.578 50.198 162.103 47.059 166.796 63.869C170.397 76.768 153.659 77.744 153.659 77.744C153.659 77.744 153.085 77.159 142.991 76.513C132.752 75.858 126.525 72.583 133.564 65.435C141.076 57.806 141.918 50.687 140.133 43.655C139.304 40.39 138.348 36.623 138.348 36.623C117.821 36.307 98.155 21.956 98.155 21.956C92.364 27.957 90.453 46.301 94.662 56.48C94.987 57.267 95.579 58.506 95.822 59.029Z" fill="#39415B"/>
<path d="M216.617 222.147C216.617 222.147 215.909 229.209 213.616 231.502C211.323 233.795 206.976 232.63 206.976 234.91C206.976 237.19 215.849 236.796 217.418 235.889C218.988 234.983 226.488 225.653 227.667 223.61C228.846 221.568 227.858 219.569 224.591 216.57C223.875 215.97 223.875 215.617 223.312 215.054C222.319 216.48 218.078 219.441 214.736 220.538C215.553 221.141 216.617 222.147 216.617 222.147Z" fill="#F9BBB9"/>
<path d="M118.393 162.565C118.393 162.565 126.717 170.051 127.582 170.717C128.448 171.383 125.462 169.338 124.01 169.123C122.558 168.908 118.393 162.565 118.393 162.565Z" fill="#136864"/>
</svg>
