<svg width="390" height="465" viewBox="0 0 390 465" fill="none" xmlns="http://www.w3.org/2000/svg">
<path d="M337.031 358.098V456.079C337.031 460.443 333.46 464.014 329.096 464.014H209.937C205.574 464.014 202.003 460.444 202.003 456.079V358.098C202.003 353.734 205.573 350.163 209.937 350.163H329.096C333.46 350.163 337.031 353.733 337.031 358.098Z" fill="#EF7E29"/>
<path d="M381.63 464.012H262.469C258.106 464.012 254.535 460.442 254.535 456.077V358.098C254.535 353.734 258.105 350.164 262.469 350.164H381.63C385.993 350.164 389.564 353.733 389.564 358.098V456.077C389.563 460.441 385.993 464.012 381.63 464.012Z" fill="#F99746"/>
<path d="M255.513 155.568C251.444 163.015 241.304 167.337 229.32 170.623C227.984 170.987 226.628 171.344 225.25 171.686C204.245 176.93 176.098 173.917 167.944 184.839C158.889 196.979 148.108 260.718 148.108 260.718C135.13 265.885 135.279 263.355 135.279 263.355C131.293 246.126 130.991 193.726 131.935 179.293C133.011 162.714 167.065 139.45 196.357 122.416C218.733 109.396 238.333 100.013 238.333 100.013C238.941 100.138 239.543 100.279 240.123 100.425C265.938 106.978 266.715 135.073 255.513 155.568Z" fill="#FFB27D"/>
<path d="M240.122 100.426C237.353 123.62 232.899 157.891 229.319 170.623C227.983 170.987 226.627 171.344 225.249 171.686C225.249 171.671 225.242 171.651 225.242 171.637C221.193 147.331 200.748 126.633 196.356 122.416C218.732 109.396 238.332 100.013 238.332 100.013C238.94 100.139 239.542 100.279 240.122 100.426Z" fill="#EF7E29"/>
<path d="M274.596 85.818C274.596 85.818 243.696 119.717 218.81 121.438C218.81 121.438 221.523 112.327 228.977 103.376C227.732 101.306 226.599 99.362 225.565 97.537C219.641 87.076 217.076 80.699 217.076 80.699L237.018 47.051C237.473 48.289 237.948 49.4911 238.452 50.6591C239.522 53.1971 240.696 55.561 241.941 57.757C242.549 58.833 243.171 59.875 243.815 60.882C256.541 80.833 274.596 85.818 274.596 85.818Z" fill="#FFB27D"/>
<path d="M225.564 97.538C219.64 87.077 217.075 80.7 217.075 80.7L237.017 47.052C237.472 48.29 237.947 49.492 238.451 50.66C240.584 59.268 243.297 80.218 225.564 97.538Z" fill="#F4A671"/>
<path d="M213.107 85.509C213.107 85.509 248.333 66.9279 236.423 45.1689C224.513 23.4099 221.039 6.35793 198.045 17.3029C175.051 28.2459 175.263 38.921 177.472 47.151C179.681 55.38 203.639 89.782 213.107 85.509Z" fill="#FFB27D"/>
<path d="M237.242 46.673C237.242 46.673 216.724 20.997 185.037 38.464C163.332 50.429 162.752 25.1321 163.019 20.8521C163.019 20.8521 180.105 12.3561 197.925 4.09707C235.327 -13.2369 237.673 40.208 237.242 46.673Z" fill="#2C3A64"/>
<path d="M278.085 278.588C277.057 277.679 276.399 276.825 276.169 276.057C275.777 274.812 257.373 275.029 218.369 168.372C211.579 149.813 216.103 121.872 222.837 109.998L227.809 101.698C236.151 100.81 244.961 96.6151 251.954 89.9091C253.878 88.0631 256.157 86.853 258.514 86.077C265.464 83.805 273.142 85.349 274.597 85.818C300.714 94.916 320.999 132.388 335.123 187.636C343.935 222.458 356.115 243.296 364.443 273.377C366.932 282.362 369.079 292.181 370.687 303.445C372.147 313.676 291.895 290.804 278.085 278.588Z" fill="#FFB27D"/>
<path d="M285.848 324.6C276.563 325.837 263.071 325.851 248.236 325.416C207.867 324.227 157.258 319.649 154.292 327.641C134.925 379.78 65.3079 420.763 64.0839 440.103C64.3109 441.355 46.4019 431.767 46.9649 431.366C46.9649 431.366 52.6319 429.005 108.818 276.178C113.974 262.152 172.613 256.805 208.089 253.976C230.749 252.163 248.416 251.463 248.416 251.463C248.416 251.463 272.602 247.435 297.362 249.163C322.123 250.892 320.394 319.999 285.848 324.6Z" fill="#F4A671"/>
<path d="M135.278 263.355C135.278 263.355 152.812 269.692 160.269 265.963C167.728 262.234 161.202 252.601 156.23 252.601C151.258 252.602 140.25 252.79 135.278 263.355Z" fill="#FFB27D"/>
<path d="M295.636 324.599C286.35 325.836 272.862 325.85 258.024 325.416C261.653 313.697 271.208 292.582 257.125 276.933C257.125 276.933 241.804 255.868 229.497 252.434C252.153 250.623 258.206 251.464 258.206 251.464C258.206 251.464 282.394 247.436 307.153 249.163C331.913 250.891 330.186 319.997 295.636 324.599Z" fill="#213F7A"/>
<path d="M364.442 273.377L364.041 273.727L278.083 278.586C277.059 277.679 276.397 276.824 276.171 276.055C276.109 275.857 275.595 275.701 274.626 275.148C271.883 273.594 265.469 268.919 255.154 251.493C246.011 236.045 233.802 210.575 218.369 168.373C211.578 149.812 216.102 121.873 222.837 110C222.837 110 227.763 112.73 233.902 109.75C248.726 102.558 273.568 85.4889 274.592 85.8199C300.714 94.9159 320.997 132.39 335.123 187.636C343.932 222.457 356.112 243.298 364.442 273.377Z" fill="#F99746"/>
<path d="M313.561 167.838L271.434 207.379L245.703 167.735L255.155 251.492C265.469 268.918 271.884 273.594 274.627 275.147C298.435 276.494 332.99 275.955 335.758 261.82C340.008 240.096 313.561 167.838 313.561 167.838Z" fill="#EF7E29"/>
<path d="M350.95 347.405C273.668 365.814 201.467 320.122 198.789 333.166C190.486 373.588 148.539 432.168 147.557 439.158C147.411 440.187 129.06 441.756 129.06 441.756C129.06 441.756 147.142 298.979 162.424 280.489C178.207 261.395 320.139 269.079 320.139 269.079C375.489 258.113 385.289 339.226 350.95 347.405Z" fill="#FFB27D"/>
<path d="M260.193 267.487C260.193 267.487 297.964 306.592 302.16 310.438C306.356 314.284 322.437 312.885 322.437 312.885C322.437 312.885 304.839 315.216 304.839 318.246C304.839 321.276 316.027 353.441 320.223 353.441C324.419 353.441 355.652 351.577 363.111 347.847C370.569 344.118 380.359 302.628 365.209 269.531L353.03 240.163C353.03 240.163 335.757 265.441 260.193 267.487Z" fill="#213F7A"/>
<path d="M260.868 205.159C257.416 192.289 243.778 184.763 230.406 188.349C226.985 189.266 223.916 190.826 221.297 192.849L216.029 196.67L216.672 197.492C212.267 203.251 210.468 210.773 212.444 218.144C215.896 231.014 229.534 238.54 242.906 234.954C243.743 234.729 244.56 234.467 245.355 234.168L245.965 234.949L251.936 230.525L251.932 230.52C259.61 224.645 263.446 214.771 260.868 205.159Z" fill="#94B0ED"/>
<path d="M207.449 221.781C203.998 208.912 212.04 195.571 225.411 191.985C238.783 188.399 252.421 195.924 255.873 208.795C259.324 221.665 251.282 235.005 237.911 238.591C224.539 242.178 210.901 234.651 207.449 221.781Z" fill="#AEC3FF"/>
<path d="M236.318 215.075C236.066 212.201 232.574 209.359 228.815 210.748C227.293 211.31 186.992 236.531 186.992 236.531L195.614 247.206L234.722 219.287C234.722 219.287 236.573 217.99 236.318 215.075Z" fill="#789CDD"/>
<path d="M315.327 266.735C297.139 284.909 213.705 233.172 213.705 233.172L223.144 216.739L277.567 229.444C262.344 207.222 252.247 185.349 245.702 167.735C237.206 144.89 234.681 129.214 234.681 129.214C230.018 110.572 271.084 86.9649 291.09 105.908C297.761 112.229 304.704 130.207 310.319 152.037C321.529 195.649 327.444 254.624 315.327 266.735Z" fill="#FFB27D"/>
<path d="M307.689 142.43C288.435 146.959 250.375 157.132 245.704 167.735C245.704 167.735 281.225 152.485 315.912 177.407L307.689 142.43Z" fill="#F4A671"/>
<path d="M310.32 152.037C273.631 148.604 249.513 164.953 245.702 167.735C237.206 144.89 234.681 129.214 234.681 129.214C230.018 110.572 271.084 86.9649 291.09 105.908C297.762 112.229 304.705 130.207 310.32 152.037Z" fill="#F99746"/>
<path d="M67.782 463.451H58.245C55.05 462.947 52.6911 462.023 49.4151 461.595C44.4381 460.943 42.1481 462.982 41.6921 463.451C41.6301 463.512 41.6041 463.546 41.6041 463.546H1.08904C0.0690427 462.092 1.04801 458.72 2.00701 456.238C2.65301 454.552 4.0601 453.274 5.8001 452.771C10.0961 451.527 18.5661 450.419 26.3221 443.397C30.6861 439.455 47.3941 428.898 47.3941 428.898L47.4831 428.877C47.8501 428.884 49.5971 429.421 57.1971 435.838C61.1261 439.149 67.8211 431.161 67.8211 431.161C67.8211 431.161 69.079 432.201 70.017 434.138C70.772 435.668 71.322 437.769 70.887 440.359C70.282 444.009 72.233 450.793 73.789 455.381C74.734 458.161 75.5291 460.133 75.5291 460.133C75.5291 460.133 75.986 462.425 67.782 463.451Z" fill="#2C3A64"/>
<path d="M152.465 463.445H142.407C139.038 462.915 136.551 461.94 133.095 461.488C127.847 460.8 125.431 462.951 124.95 463.445C124.886 463.509 124.857 463.546 124.857 463.546H82.1309C81.0549 462.012 82.088 458.456 83.099 455.84C83.78 454.062 85.264 452.714 87.099 452.184C91.629 450.871 100.562 449.704 108.742 442.298C113.345 438.14 130.965 427.007 130.965 427.007L131.059 426.986C131.446 426.993 133.288 427.559 141.302 434.327C145.447 437.818 152.507 429.395 152.507 429.395C152.507 429.395 153.833 430.492 154.822 432.535C155.618 434.147 156.199 436.363 155.74 439.095C155.102 442.945 157.159 450.099 158.801 454.938C159.798 457.87 160.637 459.949 160.637 459.949C160.637 459.949 161.117 462.363 152.465 463.445Z" fill="#2C3A64"/>
<path d="M230.097 228.251C226.342 214.251 211.506 206.063 196.959 209.965C193.237 210.963 189.898 212.659 187.048 214.861L181.318 219.018L182.018 219.913C177.225 226.178 175.268 234.361 177.418 242.38C181.173 256.381 196.01 264.568 210.556 260.667C211.468 260.422 212.356 260.136 213.221 259.811L213.885 260.662L220.38 255.849L220.376 255.844C228.728 249.449 232.9 238.709 230.097 228.251Z" fill="#94B0ED"/>
<path d="M171.984 246.334C168.229 232.334 176.978 217.821 191.524 213.92C206.071 210.02 220.907 218.206 224.662 232.207C228.417 246.207 219.669 260.72 205.122 264.621C190.575 268.522 175.739 260.335 171.984 246.334Z" fill="#AEC3FF"/>
<path d="M206.965 235.886C205.746 231.341 200.93 228.683 196.207 229.949C194.998 230.273 193.914 230.824 192.989 231.538L191.129 232.889L191.357 233.179C189.8 235.213 189.166 237.869 189.864 240.473C191.083 245.019 195.899 247.676 200.622 246.411C200.918 246.331 201.206 246.238 201.487 246.133L201.703 246.409L203.811 244.846L203.81 244.844C206.521 242.769 207.876 239.281 206.965 235.886Z" fill="#94B0ED"/>
<path d="M188.099 241.757C186.88 237.212 189.72 232.5 194.443 231.234C199.166 229.968 203.983 232.626 205.202 237.171C206.421 241.717 203.581 246.429 198.858 247.694C194.135 248.961 189.317 246.303 188.099 241.757Z" fill="#CADAFF"/>
</svg>
