<svg width="460" height="867" viewBox="0 0 460 867" fill="none" xmlns="http://www.w3.org/2000/svg">
<path d="M179.385 70.4371C179.385 70.4371 169.706 31.7571 193.606 12.2041C217.504 -7.34892 244.01 -0.396922 257.263 12.2041C270.517 24.8061 286.838 50.3631 271.629 86.6471C256.419 122.929 253.135 114.316 259.868 141.04C266.604 167.764 274.861 186.229 261.391 198.398C247.919 210.564 227.063 207.305 225.107 192.097C223.151 176.889 221.393 122.8 219.991 114.865C218.589 106.928 179.385 70.4371 179.385 70.4371Z" fill="#FCCCA2"/>
<path d="M52.064 404.705C52.064 404.705 47.851 409.015 46.481 412.952C45.396 416.07 41.5531 420.277 39.7481 422.665C37.9431 425.054 31.286 436.172 30.386 439.233C30.017 440.484 30.853 449.015 29.822 451.481C28.793 453.944 26.0881 458.694 28.2841 459.493C30.4821 460.292 34.095 456.679 34.095 456.679C34.095 456.679 33.2971 458.981 35.0031 460.267C38.3241 462.767 40.6911 461.639 40.6911 461.639C40.6911 461.639 41.4361 464.498 43.0871 465.198C46.7271 466.739 48.984 465.581 48.984 465.581C48.984 465.581 50.315 467.369 52.973 467.854C56.376 468.477 58.5241 465.833 58.5241 465.833C58.5241 465.833 62.597 467.572 64.34 465.818C66.081 464.062 66.3951 461.881 67.3621 460.167C68.3291 458.454 72.758 441.913 70.131 428.967C67.502 416.022 74.8941 405.168 74.8941 405.168L52.064 404.705Z" fill="#EEA886"/>
<path d="M93.443 521.092C93.443 546.694 72.689 567.448 47.089 567.448C21.487 567.448 0.733032 546.693 0.733032 521.092C0.733032 495.491 21.488 474.738 47.089 474.738C72.688 474.738 93.443 495.491 93.443 521.092Z" fill="#E55353"/>
<path d="M92.684 513.06L85.6121 511.945C85.6841 511.49 90.5031 479.071 75.3521 461.37C68.8181 453.734 59.308 449.864 47.09 449.864C34.869 449.864 25.361 453.734 18.825 461.37C3.64398 479.108 8.51297 511.621 8.56497 511.947L1.49307 513.06C1.26307 511.596 -3.95193 477.001 13.3681 456.736C21.3261 447.425 32.671 442.705 47.09 442.705C61.507 442.705 72.8521 447.426 80.8101 456.736C98.1311 477.001 92.914 511.596 92.684 513.06ZM89.147 512.502L85.611 511.948V511.945L89.147 512.502Z" fill="#E55353"/>
<path d="M427.296 146.247C427.296 171.848 406.541 192.603 380.94 192.603C355.341 192.603 334.586 171.848 334.586 146.247C334.586 120.648 355.341 99.8931 380.94 99.8931C406.541 99.8931 427.296 120.648 427.296 146.247Z" fill="#E55353"/>
<path d="M247.806 144.941C247.806 144.941 264.342 140.225 286.595 149.575C308.851 158.925 306.573 155.471 330.29 160.93C354.005 166.39 356.955 169.132 356.955 169.132C356.955 169.132 365.518 146.466 367.134 134.156C368.793 121.508 371.152 91.2451 371.152 91.2451L395.111 94.6531C395.111 94.6531 394.93 143.16 392.386 160.082C386.196 201.26 383.261 208.777 376.265 208.651C369.267 208.527 344.595 209.67 327.399 205.443C311.422 201.519 292.01 198.64 277.924 205.389L247.806 144.941Z" fill="#EEA886"/>
<path d="M264.23 288.928C263.584 296.413 266.322 306.025 268.028 312.21C269.953 319.164 276.128 344.743 276.128 344.743C276.128 344.743 225.187 360.144 148.328 346.145C148.328 346.145 153.348 326.288 155.158 316.473C156.142 311.171 159.037 300.983 157.737 291.201C157.373 288.466 156.265 283.275 154.854 277.123C151.224 261.349 145.593 239.301 145.365 236.497C145.039 232.585 123.871 211.088 142.754 185.363C142.754 185.363 147.638 158.654 148.939 151.485C148.939 151.485 181.833 136.505 190.631 135.204C199.427 133.903 231.994 135.204 231.994 135.204C231.994 135.204 259.673 145.956 269.772 147.257C279.869 148.558 276.15 178.524 276.15 178.524C276.15 178.524 283.384 199.239 282.876 212.763C282.198 230.956 273.685 235.84 273.029 237.14C272.564 238.067 268.642 260.073 266.186 275.395H266.176C265.18 281.624 264.424 286.757 264.23 288.928Z" fill="#EEA886"/>
<path d="M148.944 151.489C148.944 151.489 134.926 155.762 127.603 160.129C120.023 164.649 110.367 179.852 107.436 192.308C104.506 204.766 101.64 224.603 97.73 236.817C93.823 249.031 82.831 280.54 77.213 292.019C71.594 303.5 66.465 351.375 63.046 362.856C59.626 374.335 47.089 412.603 47.089 412.603L66.953 422.7C66.953 422.7 107.258 334.278 111.165 320.843C115.072 307.408 115.807 291.043 119.469 281.03C123.134 271.015 139.254 234.211 141.697 227.211C144.141 220.208 171.58 154.583 148.944 151.489Z" fill="#EEA886"/>
<path d="M214.977 425.818C208.384 423.612 206.099 430.59 206.099 430.59C201.509 442.485 186.073 472.675 173.126 499.847C173.091 499.891 173.081 499.914 173.081 499.914C167.303 512.036 162.022 523.56 158.414 532.571C146.722 561.824 115.864 603.945 114.122 616.722C112.391 629.511 117.515 643.384 118.272 663.739C118.784 677.621 115.799 768.793 115.226 786.059L112.458 789.096C94.275 800.085 82.6651 792.511 82.6651 792.511C82.6651 792.511 66.54 689.183 65.41 662.328C64.47 640.154 57.855 625.092 60.605 598.439C61.972 585.222 75.056 561.927 77 547.555C78.503 536.462 91.033 504.868 99.829 477.877C102.431 469.894 104.691 462.318 106.251 455.794C113.094 427.163 130.223 385.79 134.771 375.995C139.18 366.509 145.808 352.805 146.213 351.957C146.213 351.944 146.225 351.925 146.235 351.912L212.441 351.821L214.977 425.818Z" fill="#EEA886"/>
<path d="M402.319 783.214C402.319 783.214 392.537 792.396 374.367 781.404C374.367 781.404 340.467 690.537 332.563 677.364C324.657 664.181 312.354 629.511 310.625 616.722C308.895 603.945 296.13 590.139 284.437 560.885C279.529 548.629 268.356 526.804 256.541 504.303C240.155 473.093 222.517 440.595 218.649 430.59C218.649 430.59 217.358 424.754 211.75 425.353C210.993 425.432 210.167 425.637 209.252 425.976L145.794 352.817L218.603 351.732L277.991 350.836C277.991 350.836 285.42 366.205 289.976 375.995C294.522 385.79 313.644 428.724 320.484 457.354C322.159 464.352 324.206 472.562 326.365 481.18C333.069 507.773 340.895 538.258 342.364 549.114C344.31 563.499 351.15 585.151 357.777 596.662C364.415 608.173 379.702 642.096 382.439 664.124C385.165 686.15 402.319 783.214 402.319 783.214Z" fill="#EEA886"/>
<path d="M188.173 27.085C188.173 27.085 172.53 51.853 182.308 86.399C192.085 120.942 206.084 123.138 217.632 119.639C231.646 115.393 245.057 86.184 247.336 73.147C249.618 60.113 258.313 28.796 224.672 24.805C209.237 22.973 193.605 23.497 188.173 27.085Z" fill="#EEA886"/>
<path d="M229.225 109.639C229.225 109.639 228.968 147.209 234.112 157.677C239.253 168.147 187.741 161.678 187.741 161.678C187.741 161.678 194.061 119.226 191.784 109.038C189.506 98.8502 229.225 109.639 229.225 109.639Z" fill="#EEA886"/>
<path d="M179.095 63.6932C179.095 63.6932 191.867 33.7132 204.469 34.7982C204.469 34.7982 229.067 66.8582 250.66 79.2902C250.66 79.2902 277.25 35.6682 214.68 16.7662C214.68 16.7662 176.751 1.77318 179.095 63.6932Z" fill="#FCCCA2"/>
<path d="M194.266 112.455C194.266 112.455 202.476 122.351 211.48 120.804C220.486 119.256 225.555 114.792 225.555 114.792C225.555 114.792 221.415 124.649 210.498 124.649C201.128 124.649 194.266 112.455 194.266 112.455Z" fill="#A77860"/>
<path d="M256.164 143.764C256.164 143.764 272.213 169.912 276.154 178.52C276.154 178.52 297.293 218.499 273.029 237.144C273.029 237.144 270.494 258.04 266.184 275.397C266.184 275.397 212.708 264.435 154.853 277.128C154.853 277.128 145.362 241.296 145.362 236.492C145.362 236.492 122.565 208.647 142.755 185.361C142.755 185.361 160.706 149.028 162.192 145.659C162.192 145.659 203.067 119.595 256.164 143.764Z" fill="#3F74A0"/>
<path d="M182.06 137.417C182.06 137.417 154.157 198.959 207.405 200.667C260.653 202.378 240.045 143.047 238.578 137.359C238.578 137.359 216.524 123.618 182.06 137.417Z" fill="#EEA886"/>
<path d="M115.227 786.059C115.227 786.059 111.972 788.582 107.818 788.094C103.666 787.604 91.452 782.475 86.079 784.674C80.705 786.872 77.775 810.809 67.273 816.673C56.768 822.534 25.259 840.855 26.968 856.486C28.694 872.27 71.18 867.967 82.172 855.022C93.164 842.074 102.689 848.427 111.483 839.389C120.276 830.35 113.886 795.042 115.227 786.059Z" fill="#DBDFF0"/>
<path d="M371.325 773.296C371.325 773.296 374.513 776.143 378.664 775.655C382.816 775.165 395.029 770.036 400.403 772.235C405.777 774.433 408.707 798.371 419.212 804.233C429.714 810.094 461.224 828.415 459.515 844.046C457.788 859.83 415.303 855.527 404.311 842.582C393.319 829.634 383.793 835.987 375 826.949C366.206 817.912 372.67 782.28 371.325 773.296Z" fill="#DBDFF0"/>
<path d="M33.872 455.02C33.872 455.02 37.1461 440.215 41.7901 437.863C46.4341 435.511 45.554 440.917 45.554 440.917C45.554 440.917 46.3331 435.559 50.7321 435.705C55.1331 435.853 53.7641 442.129 53.7641 442.129C53.7641 442.129 55.4601 438.219 59.6911 439.95C63.9221 441.683 61.5831 446.639 61.5831 446.639C61.5831 446.639 67.08 442.428 68.621 447.855C71.223 457.017 64.341 465.818 64.341 465.818C64.341 465.818 62.4791 467.779 58.5251 465.833C58.5251 465.833 54.287 470.964 48.985 465.581C48.985 465.581 41.6281 467.839 40.6911 461.639C40.6891 461.64 32.714 463.588 33.872 455.02Z" fill="#DB9C7C"/>
<path d="M396.078 101.901C396.078 101.901 392.322 111.869 389.23 116.819C386.137 121.77 376.861 102.311 376.861 102.311L396.078 101.901Z" fill="#EEA886"/>
<path d="M371.729 101.693C371.729 101.693 362.367 88.481 360.998 86.418C359.633 84.356 359.678 77.452 360.422 69.526C361.164 61.603 365.714 51.23 366.923 50.582C368.135 49.934 369.055 48.715 372.554 49.126C376.053 49.534 378.785 51.804 378.785 51.804C378.785 51.804 383.336 50.281 386.491 53.332C386.491 53.332 390.836 52.095 393.855 56.148C393.855 56.148 398.13 55.055 400.074 58.183C400.074 58.183 400.04 65.104 400.766 67.671C401.494 70.235 399.215 88.255 396.078 101.9C396.078 101.9 389.968 110.161 371.729 101.693Z" fill="#EEA886"/>
<path d="M376.441 79.1831C376.441 79.1831 383.363 83.4511 384.703 85.6341C386.038 87.8161 399.857 75.7631 399.857 75.7631C399.857 75.7631 381.854 70.9061 376.441 79.1831Z" fill="#CF8C6C"/>
<path d="M426.536 138.215L419.464 137.099C419.536 136.644 424.356 104.225 409.204 86.5242C402.668 78.8902 393.16 75.0182 380.939 75.0182C368.72 75.0182 359.212 78.8902 352.676 86.5242C337.495 104.262 342.364 136.775 342.416 137.101L335.344 138.214C335.115 136.75 329.897 102.155 347.219 81.8892C355.176 72.5792 366.522 67.8582 380.939 67.8582C395.358 67.8582 406.704 72.5792 414.662 81.8892C431.984 102.156 426.767 136.751 426.536 138.215ZM423 137.659L419.464 137.102C419.464 137.102 419.464 137.102 419.464 137.099L423 137.659Z" fill="#E55353"/>
<path d="M366.651 52.6512C366.651 52.6512 365.256 72.7832 368.471 73.4062C371.685 74.0322 373.245 72.3112 373.245 72.3112L376.43 80.8572C376.43 80.8572 381.734 85.3262 385.05 78.2432C385.05 78.2432 389.571 82.9292 391.959 75.7082C391.959 75.7082 396.321 77.4692 398.018 74.3212C399.711 71.1732 400.073 58.1832 400.073 58.1832C400.073 58.1832 398.916 55.4062 393.854 56.1482C393.854 56.1482 391.193 52.0952 386.49 53.3322C386.49 53.3322 383.851 50.4212 378.784 51.8042C378.784 51.8042 372.392 45.7722 366.922 50.5822C366.922 50.5822 366.703 51.8042 366.651 52.6512Z" fill="#DB9C7C"/>
<path d="M360.974 85.783C360.974 85.783 368.125 73.924 374.871 69.163C376.396 68.087 378.073 67.323 379.648 68.332C381.223 69.344 381.757 72.909 378.924 78.204C376.09 83.501 374.846 91.642 374.846 91.642C374.846 91.642 370.341 96.231 360.974 85.783Z" fill="#EEA886"/>
<path d="M276.128 344.743C276.128 344.743 225.187 360.144 148.328 346.145C148.328 346.145 153.348 326.288 155.158 316.473C156.142 311.171 159.037 300.983 157.737 291.201C157.373 288.466 156.265 283.275 154.854 277.123C154.854 277.123 203.77 255.684 266.177 275.394C265.18 281.623 264.424 286.757 264.231 288.928C263.585 296.413 266.323 306.025 268.029 312.21C269.953 319.164 276.128 344.743 276.128 344.743Z" fill="#3F74A0"/>
<path d="M326.366 481.18C298.425 482.659 256.543 504.304 256.543 504.304C240.157 473.094 222.519 440.596 218.651 430.591C218.651 430.591 217.36 424.755 211.752 425.354C207.535 387.462 202.605 364.433 209.976 351.349L277.993 350.837C277.993 350.837 285.422 366.206 289.978 375.996C294.524 385.791 313.646 428.725 320.486 457.355C322.16 464.352 324.207 472.563 326.366 481.18Z" fill="#3C3F66"/>
<path d="M214.977 425.818C208.384 423.612 206.099 430.59 206.099 430.59C201.509 442.485 186.073 472.675 173.126 499.847C173.091 499.891 173.081 499.914 173.081 499.914C173.081 499.914 134.25 482.841 99.83 477.876H99.8199C99.8199 477.876 122.444 387.021 146.214 351.956C146.214 351.943 146.226 351.924 146.236 351.911L212.442 351.82L214.977 425.818Z" fill="#3C3F66"/>
<path d="M148.328 346.14C148.328 346.14 206.599 347.396 276.128 344.747L279.172 353.271C279.172 353.271 227.783 363.034 145.062 354.344L148.328 346.14Z" fill="#30597A"/>
</svg>
