<svg width="272" height="300" viewBox="0 0 272 300" fill="none" xmlns="http://www.w3.org/2000/svg">
    <g clip-path="url(#clip0_1147_5167)">
        <path d="M188.9 61.0984C170.05 58.0903 148.585 56.4851 126.231 56.4851C105.772 56.4851 86.0615 57.8275 68.4211 60.3585C68.4252 60.0876 68.4292 59.8167 68.4412 59.5458C68.9089 43.8217 75.5086 28.9043 86.8296 17.9819C98.1507 7.05945 113.295 0.99859 129.026 1.09469C144.757 1.1908 159.826 7.43624 171.013 18.4962C182.199 29.5561 188.616 44.553 188.892 60.2817C188.896 60.5566 188.9 60.8275 188.9 61.0984Z" fill="url(#paint0_linear_1147_5167)"/>
        <g opacity="0.1">
            <path d="M136.561 1.07223C128.194 -0.0578631 119.684 0.582641 111.58 2.95223C103.477 5.32181 95.9623 9.36761 89.5228 14.8274C83.0832 20.2872 77.8628 27.0391 74.1997 34.6456C70.5366 42.2521 68.5126 50.5434 68.259 58.9822C68.2468 59.2531 68.2429 59.524 68.2389 59.7949C73.4796 59.0429 78.9067 58.3986 84.4783 57.8605C85.1598 43.8019 90.7416 30.4255 100.255 20.0524C109.769 9.67929 122.614 2.96416 136.561 1.07223Z" fill="white"/>
        </g>
        <path d="M215.253 65.8774C206.577 63.5253 197.776 61.6571 188.892 60.2817C174.331 58.0253 159.651 56.6145 144.926 56.0566C138.793 55.8059 132.546 55.6765 126.231 55.6765C121.225 55.6765 116.26 55.7574 111.364 55.9191C97.0008 56.3434 82.6718 57.5542 68.4413 59.5458C57.9071 60.9964 47.4751 63.1111 37.2077 65.8774C13.268 72.4961 0.0832367 81.3669 0.0832367 90.8522C0.0832367 100.337 13.268 109.208 37.2077 115.827C54.0435 120.485 74.8012 123.659 97.4189 125.114C106.755 125.721 116.406 126.028 126.231 126.028C136.088 126.028 145.771 125.717 155.135 125.11C175.719 123.78 194.762 121.026 210.701 117.024C210.786 116.999 210.867 116.979 210.951 116.959C212.027 116.692 213.086 116.413 214.133 116.134C214.509 116.029 214.881 115.928 215.253 115.827C215.274 115.818 215.296 115.812 215.318 115.807C215.674 115.71 216.026 115.609 216.377 115.512C217.081 115.309 217.776 115.111 218.46 114.905C218.492 114.897 218.52 114.889 218.549 114.881C219.143 114.703 219.725 114.525 220.303 114.347C220.776 114.198 221.245 114.052 221.71 113.902C222.05 113.793 222.386 113.684 222.717 113.575C222.96 113.494 223.198 113.417 223.433 113.336C223.752 113.231 224.072 113.122 224.387 113.013C224.52 112.968 224.654 112.924 224.783 112.875C225.086 112.774 225.382 112.669 225.677 112.564C225.996 112.451 226.316 112.334 226.631 112.22C226.894 112.127 227.157 112.03 227.415 111.933C227.633 111.848 227.848 111.768 228.066 111.687C228.66 111.464 229.243 111.234 229.817 111.007C230.104 110.89 230.391 110.777 230.674 110.66C230.953 110.547 231.236 110.429 231.511 110.312C231.964 110.122 232.408 109.932 232.845 109.742C233.055 109.645 233.27 109.552 233.476 109.463C233.634 109.39 233.787 109.321 233.945 109.249C234.058 109.2 234.171 109.148 234.281 109.095C234.689 108.909 235.093 108.719 235.489 108.529C237.01 107.801 238.429 107.057 239.747 106.297C248.015 101.563 252.378 96.3105 252.378 90.8522C252.378 81.3669 239.193 72.4961 215.253 65.8774ZM215.035 115.051C198.179 119.712 177.365 122.886 154.686 124.33C145.464 124.916 135.93 125.219 126.231 125.219C116.563 125.219 107.062 124.92 97.8677 124.334C75.153 122.894 54.3063 119.721 37.426 115.051C13.8664 108.533 0.891873 99.9413 0.891873 90.8522C0.89319 90.0491 0.993713 89.2492 1.19116 88.4708C3.25303 80.2712 15.9365 72.5972 37.426 66.6537C47.6158 63.909 57.9679 61.8064 68.4211 60.3585C82.7373 58.3556 97.1528 57.1408 111.602 56.7196C116.422 56.562 121.298 56.4838 126.231 56.4851C132.461 56.4851 138.623 56.6105 144.68 56.8531C159.49 57.406 174.255 58.8236 188.9 61.0984C197.707 62.4677 206.432 64.3223 215.035 66.6537C236.521 72.5972 249.2 80.2671 251.266 88.4627C251.467 89.2433 251.569 90.0461 251.569 90.8522C251.569 99.9413 238.595 108.533 215.035 115.051Z" fill="#3F3D56"/>
        <path d="M252.147 91.2201C252.147 96.6218 247.696 101.732 239.747 106.297C238.425 107.057 237.002 107.801 235.489 108.529C235.093 108.719 234.689 108.909 234.281 109.095C234.171 109.148 234.058 109.2 233.945 109.249C233.787 109.321 233.634 109.39 233.476 109.463C233.27 109.552 233.055 109.645 232.845 109.742C232.408 109.932 231.964 110.122 231.511 110.312C231.236 110.429 230.953 110.547 230.674 110.66C230.391 110.777 230.104 110.89 229.817 111.007C229.243 111.234 228.66 111.464 228.066 111.687C227.848 111.768 227.633 111.848 227.415 111.933C227.156 112.03 226.894 112.127 226.631 112.22C226.315 112.334 225.996 112.451 225.677 112.564C225.381 112.669 225.086 112.774 224.783 112.875C224.654 112.924 224.52 112.968 224.387 113.013C224.072 113.122 223.752 113.231 223.433 113.336C223.198 113.417 222.96 113.494 222.717 113.575C222.385 113.684 222.05 113.793 221.71 113.902C221.245 114.052 220.776 114.197 220.303 114.347C219.725 114.525 219.143 114.703 218.549 114.881C218.52 114.889 218.492 114.897 218.46 114.905C217.776 115.111 217.081 115.309 216.377 115.512C216.026 115.609 215.674 115.71 215.318 115.807C215.296 115.812 215.274 115.818 215.253 115.827C214.881 115.928 214.509 116.029 214.133 116.134C213.09 116.409 212.027 116.688 210.951 116.959C210.866 116.979 210.786 116.999 210.701 117.024C195.195 120.897 176.172 123.719 155.119 125.082C145.897 125.676 136.282 125.991 126.404 125.991C116.438 125.991 106.742 125.672 97.4471 125.066C41.9584 121.447 0.661453 107.668 0.661453 91.2201C0.665822 90.2193 0.818372 89.2247 1.11414 88.2686C1.13842 88.3373 1.1627 88.402 1.19113 88.4707C6.96057 103.625 47.9061 115.871 101.033 118.859C109.172 119.32 117.602 119.559 126.231 119.559C134.895 119.559 143.357 119.316 151.529 118.855C204.612 115.855 245.517 103.604 251.266 88.4626C251.363 88.22 251.448 87.9774 251.521 87.7349C251.931 88.8513 252.143 90.0308 252.147 91.2201Z" fill="#3F3D56"/>
        <path d="M37.1468 86.868C30.4179 86.868 23.2663 85.4203 23.2663 82.7372C23.2663 80.054 30.4179 78.6064 37.1468 78.6064C43.8757 78.6064 51.0273 80.054 51.0273 82.7372C51.0273 85.4203 43.8757 86.868 37.1468 86.868ZM37.1468 79.415C29.4433 79.415 24.0749 81.1659 24.0749 82.7372C24.0749 84.3085 29.4433 86.0594 37.1468 86.0594C44.8503 86.0594 50.2187 84.3085 50.2187 82.7372C50.2187 81.1659 44.8503 79.415 37.1468 79.415Z" fill="#3F3D56"/>
        <path d="M65.8533 105.871C59.1244 105.871 51.9729 104.423 51.9729 101.74C51.9729 99.057 59.1245 97.6093 65.8533 97.6093C72.5823 97.6093 79.7339 99.057 79.7339 101.74C79.7339 104.423 72.5823 105.871 65.8533 105.871ZM65.8533 98.418C58.1499 98.418 52.7815 100.169 52.7815 101.74C52.7815 103.311 58.1499 105.062 65.8533 105.062C73.5568 105.062 78.9253 103.311 78.9253 101.74C78.9253 100.169 73.5568 98.418 65.8533 98.418Z" fill="#3F3D56"/>
        <path d="M215.047 86.868C208.318 86.868 201.166 85.4203 201.166 82.7372C201.166 80.054 208.318 78.6064 215.047 78.6064C221.776 78.6064 228.927 80.054 228.927 82.7372C228.927 85.4203 221.776 86.868 215.047 86.868ZM215.047 79.415C207.343 79.415 201.975 81.1659 201.975 82.7372C201.975 84.3085 207.343 86.0594 215.047 86.0594C222.75 86.0594 228.119 84.3085 228.119 82.7372C228.119 81.1659 222.75 79.415 215.047 79.415Z" fill="#3F3D56"/>
        <path d="M186.34 105.871C179.611 105.871 172.46 104.423 172.46 101.74C172.46 99.057 179.611 97.6093 186.34 97.6093C193.069 97.6093 200.221 99.057 200.221 101.74C200.221 104.423 193.069 105.871 186.34 105.871ZM186.34 98.418C178.637 98.418 173.268 100.169 173.268 101.74C173.268 103.311 178.637 105.062 186.34 105.062C194.044 105.062 199.412 103.311 199.412 101.74C199.412 100.169 194.044 98.418 186.34 98.418Z" fill="#3F3D56"/>
        <path d="M126.097 114.766C119.368 114.766 112.216 113.318 112.216 110.635C112.216 107.952 119.368 106.504 126.097 106.504C132.826 106.504 139.977 107.952 139.977 110.635C139.977 113.318 132.826 114.766 126.097 114.766ZM126.097 107.313C118.393 107.313 113.025 109.064 113.025 110.635C113.025 112.206 118.393 113.957 126.097 113.957C133.8 113.957 139.169 112.206 139.169 110.635C139.169 109.064 133.8 107.313 126.097 107.313Z" fill="#3F3D56"/>
        <path d="M136.33 199.744C145.711 199.744 153.316 192.139 153.316 182.758C153.316 173.377 145.711 165.772 136.33 165.772C126.948 165.772 119.343 173.377 119.343 182.758C119.343 192.139 126.948 199.744 136.33 199.744Z" fill="#2F2E41"/>
        <path d="M129.87 193.918L121.603 198.058L123.914 202.672L132.181 198.532L129.87 193.918Z" fill="#2F2E41"/>
        <path d="M125.004 202.204C125.494 201.46 124.284 199.798 122.301 198.49C120.318 197.183 118.314 196.726 117.823 197.47C117.333 198.213 118.543 199.876 120.526 201.183C122.509 202.49 124.513 202.948 125.004 202.204Z" fill="#2F2E41"/>
        <path d="M142.789 193.918L140.478 198.532L148.745 202.672L151.056 198.058L142.789 193.918Z" fill="#2F2E41"/>
        <path d="M152.133 201.183C154.116 199.876 155.326 198.213 154.836 197.47C154.345 196.726 152.341 197.183 150.358 198.49C148.375 199.798 147.165 201.46 147.655 202.204C148.146 202.947 150.15 202.49 152.133 201.183Z" fill="#2F2E41"/>
        <path d="M135.14 184.408C138.347 184.408 140.946 181.809 140.946 178.603C140.946 175.397 138.347 172.797 135.14 172.797C131.934 172.797 129.335 175.397 129.335 178.603C129.335 181.809 131.934 184.408 135.14 184.408Z" fill="white"/>
        <path d="M136.553 177.49C137.305 176.737 137.301 175.513 136.543 174.755C135.785 173.997 134.56 173.993 133.808 174.745C133.055 175.498 133.06 176.722 133.818 177.48C134.575 178.238 135.8 178.243 136.553 177.49Z" fill="#3F3D56"/>
        <path d="M149.729 164.279C149.985 157.99 144.565 152.663 137.624 152.382C130.683 152.1 124.849 156.969 124.593 163.258C124.338 169.546 129.163 170.975 136.104 171.257C143.045 171.539 149.474 170.567 149.729 164.279Z" fill="url(#paint1_linear_1147_5167)"/>
        <path d="M159.521 191.653C160.638 190.693 159.067 187.031 156.012 183.472C152.956 179.912 149.574 177.805 148.456 178.764C147.339 179.723 148.91 183.386 151.965 186.945C155.021 190.504 158.403 192.612 159.521 191.653Z" fill="#2F2E41"/>
        <path d="M120.741 186.945C123.796 183.386 125.368 179.723 124.25 178.764C123.133 177.805 119.75 179.912 116.695 183.472C113.64 187.031 112.069 190.693 113.186 191.653C114.303 192.612 117.686 190.504 120.741 186.945Z" fill="#2F2E41"/>
        <path d="M140.995 189.452C141.179 190.462 140.954 191.503 140.37 192.347C139.786 193.192 138.89 193.769 137.88 193.953C136.87 194.137 135.829 193.912 134.985 193.328C134.141 192.744 133.563 191.848 133.379 190.838L133.378 190.831C132.997 188.728 134.623 187.983 136.727 187.602C138.83 187.222 140.614 187.349 140.995 189.452Z" fill="white"/>
        <path d="M107.632 200.827C107.417 200.827 107.212 200.742 107.06 200.59C106.908 200.438 106.823 200.233 106.823 200.018V152.309C106.823 152.094 106.908 151.888 107.06 151.737C107.212 151.585 107.417 151.5 107.632 151.5C107.846 151.5 108.052 151.585 108.204 151.737C108.355 151.888 108.441 152.094 108.441 152.309V200.018C108.441 200.233 108.355 200.438 108.204 200.59C108.052 200.742 107.846 200.827 107.632 200.827Z" fill="#CCCCCC"/>
        <path d="M95.5023 243.685C95.2879 243.685 95.0822 243.599 94.9306 243.448C94.7789 243.296 94.6937 243.09 94.6937 242.876V208.105C94.6937 207.89 94.7789 207.684 94.9305 207.533C95.0822 207.381 95.2879 207.296 95.5023 207.296C95.7168 207.296 95.9225 207.381 96.0741 207.533C96.2258 207.684 96.311 207.89 96.311 208.105V242.876C96.311 243.09 96.2258 243.296 96.0741 243.448C95.9225 243.599 95.7168 243.685 95.5023 243.685Z" fill="#CCCCCC"/>
        <path d="M126.635 214.978C126.42 214.978 126.215 214.893 126.063 214.741C125.911 214.589 125.826 214.384 125.826 214.169V166.46C125.826 166.245 125.911 166.04 126.063 165.888C126.215 165.736 126.42 165.651 126.635 165.651C126.849 165.651 127.055 165.736 127.207 165.888C127.358 166.04 127.443 166.245 127.443 166.46V214.169C127.443 214.384 127.358 214.589 127.207 214.741C127.055 214.893 126.849 214.978 126.635 214.978Z" fill="#CCCCCC"/>
        <path d="M114.91 249.345C114.695 249.345 114.489 249.26 114.338 249.108C114.186 248.956 114.101 248.751 114.101 248.536V229.129C114.101 228.915 114.186 228.709 114.338 228.557C114.489 228.406 114.695 228.32 114.91 228.32C115.124 228.32 115.33 228.406 115.481 228.557C115.633 228.709 115.718 228.915 115.718 229.129V248.536C115.718 248.751 115.633 248.956 115.481 249.108C115.33 249.26 115.124 249.345 114.91 249.345Z" fill="#CCCCCC"/>
        <path d="M131.487 149.883C131.272 149.883 131.067 149.797 130.915 149.646C130.763 149.494 130.678 149.288 130.678 149.074V129.667C130.678 129.452 130.763 129.247 130.915 129.095C131.067 128.943 131.272 128.858 131.487 128.858C131.701 128.858 131.907 128.943 132.058 129.095C132.21 129.247 132.295 129.452 132.295 129.667V149.074C132.295 149.288 132.21 149.494 132.058 149.646C131.907 149.797 131.701 149.883 131.487 149.883Z" fill="#CCCCCC"/>
        <path d="M91.0548 158.373C90.8404 158.373 90.6347 158.288 90.483 158.136C90.3314 157.985 90.2462 157.779 90.2462 157.565V138.157C90.2462 137.943 90.3314 137.737 90.483 137.586C90.6347 137.434 90.8404 137.349 91.0548 137.349C91.2693 137.349 91.475 137.434 91.6266 137.586C91.7783 137.737 91.8635 137.943 91.8635 138.157V157.565C91.8635 157.779 91.7783 157.985 91.6266 158.136C91.475 158.288 91.2693 158.373 91.0548 158.373Z" fill="#CCCCCC"/>
        <path d="M161.406 160.395C161.192 160.395 160.986 160.31 160.834 160.158C160.683 160.006 160.598 159.801 160.598 159.586V140.179C160.598 139.965 160.683 139.759 160.834 139.607C160.986 139.456 161.192 139.37 161.406 139.37C161.621 139.37 161.826 139.456 161.978 139.607C162.13 139.759 162.215 139.965 162.215 140.179V159.586C162.215 159.801 162.13 160.006 161.978 160.158C161.826 160.31 161.621 160.395 161.406 160.395Z" fill="#CCCCCC"/>
        <path d="M159.789 221.043C159.574 221.043 159.369 220.957 159.217 220.806C159.066 220.654 158.98 220.449 158.98 220.234V196.784C158.98 196.569 159.065 196.363 159.217 196.212C159.369 196.06 159.574 195.975 159.789 195.975C160.003 195.975 160.209 196.06 160.361 196.212C160.512 196.363 160.598 196.569 160.598 196.784V220.234C160.598 220.449 160.512 220.654 160.361 220.806C160.209 220.957 160.003 221.043 159.789 221.043Z" fill="#CCCCCC"/>
        <path d="M143.616 241.663C143.402 241.663 143.196 241.578 143.044 241.426C142.893 241.274 142.808 241.069 142.808 240.854V206.083C142.808 205.868 142.893 205.663 143.044 205.511C143.196 205.359 143.402 205.274 143.616 205.274C143.831 205.274 144.036 205.359 144.188 205.511C144.34 205.663 144.425 205.868 144.425 206.083V240.854C144.425 241.069 144.34 241.274 144.188 241.426C144.036 241.578 143.831 241.663 143.616 241.663Z" fill="#CCCCCC"/>
        <path d="M146.851 182.228C146.636 182.228 146.431 182.143 146.279 181.991C146.127 181.84 146.042 181.634 146.042 181.419V133.71C146.042 133.495 146.127 133.29 146.279 133.138C146.431 132.986 146.636 132.901 146.851 132.901C147.065 132.901 147.271 132.986 147.423 133.138C147.574 133.29 147.659 133.495 147.659 133.71V181.419C147.659 181.634 147.574 181.84 147.423 181.991C147.271 182.143 147.065 182.228 146.851 182.228Z" fill="#CCCCCC"/>
        <path d="M245.987 283.751C247.144 282.782 245.58 279.008 242.493 275.321C239.406 271.634 235.966 269.431 234.808 270.4C233.651 271.369 235.215 275.144 238.302 278.83C241.389 282.517 244.829 284.72 245.987 283.751Z" fill="#2F2E41"/>
        <path d="M238.396 279.559C241.437 270.435 236.507 260.574 227.383 257.533C218.26 254.492 208.399 259.422 205.358 268.546C202.316 277.669 207.247 287.53 216.37 290.572C225.494 293.613 235.355 288.682 238.396 279.559Z" fill="#2F2E41"/>
        <path d="M229.247 287.718H223.957V297.196H229.247V287.718Z" fill="#2F2E41"/>
        <path d="M218.667 287.718H213.377V297.196H218.667V287.718Z" fill="#2F2E41"/>
        <path d="M224.839 298.959C227.274 298.959 229.247 298.219 229.247 297.306C229.247 296.393 227.274 295.653 224.839 295.653C222.404 295.653 220.431 296.393 220.431 297.306C220.431 298.219 222.404 298.959 224.839 298.959Z" fill="#2F2E41"/>
        <path d="M214.259 298.739C216.694 298.739 218.667 297.999 218.667 297.086C218.667 296.173 216.694 295.433 214.259 295.433C211.824 295.433 209.851 296.173 209.851 297.086C209.851 297.999 211.824 298.739 214.259 298.739Z" fill="#2F2E41"/>
        <path d="M216.409 252.164C217.964 245.902 224.828 242.217 231.739 243.933C238.651 245.649 242.993 252.117 241.438 258.378C239.883 264.64 234.725 264.66 227.813 262.944C220.902 261.228 214.855 258.425 216.409 252.164Z" fill="#CCCCCC"/>
        <path d="M210.131 269.703C210.778 268.34 207.78 265.564 203.435 263.503C199.091 261.442 195.045 260.878 194.398 262.242C193.751 263.605 196.748 266.382 201.093 268.442C205.438 270.503 209.484 271.067 210.131 269.703Z" fill="#2F2E41"/>
        <path d="M219.274 276.183C222.48 276.183 225.079 273.584 225.079 270.378C225.079 267.172 222.48 264.572 219.274 264.572C216.067 264.572 213.468 267.172 213.468 270.378C213.468 273.584 216.067 276.183 219.274 276.183Z" fill="white"/>
        <path d="M216.888 270.232C217.956 270.232 218.823 269.366 218.823 268.297C218.823 267.228 217.956 266.362 216.888 266.362C215.819 266.362 214.953 267.228 214.953 268.297C214.953 269.366 215.819 270.232 216.888 270.232Z" fill="#3F3D56"/>
        <path d="M219.224 284.925C220.564 284.925 221.65 283.839 221.65 282.499C221.65 281.159 220.564 280.073 219.224 280.073C217.884 280.073 216.798 281.159 216.798 282.499C216.798 283.839 217.884 284.925 219.224 284.925Z" fill="white"/>
        <path d="M271.596 299.076H176.177C176.069 299.076 175.967 299.033 175.891 298.958C175.815 298.882 175.772 298.779 175.772 298.672C175.772 298.565 175.815 298.462 175.891 298.386C175.967 298.31 176.069 298.267 176.177 298.267H271.596C271.703 298.267 271.806 298.31 271.882 298.386C271.957 298.462 272 298.565 272 298.672C272 298.779 271.957 298.882 271.882 298.958C271.806 299.033 271.703 299.076 271.596 299.076Z" fill="#3F3D56"/>
    </g>
    <defs>
        <linearGradient id="paint0_linear_1147_5167" x1="188.9" y1="61.0984" x2="31.1724" y2="36.5928" gradientUnits="userSpaceOnUse">
            <stop stop-color="${primaryGradientEnd}"/>
            <stop offset="1" stop-color="${primaryGradientStart}"/>
        </linearGradient>
        <linearGradient id="paint1_linear_1147_5167" x1="149.738" y1="171.3" x2="116.364" y2="167.868" gradientUnits="userSpaceOnUse">
            <stop stop-color="${primaryGradientEnd}"/>
            <stop offset="1" stop-color="${primaryGradientStart}"/>
        </linearGradient>
        <clipPath id="clip0_1147_5167">
            <rect width="271.917" height="298.546" fill="white" transform="translate(0.0832214 0.529907)"/>
        </clipPath>
    </defs>
</svg>